<svg xmlns="http://www.w3.org/2000/svg" viewBox="0 0 346.97 318.81"><defs><style>.cls-1{fill:#383838;}</style></defs><g id="Layer_2" data-name="Layer 2"><g id="icons"><rect class="cls-1" x="112.32" y="176.25" width="36.19" height="36.19" transform="translate(-103.62 196.72) rotate(-56.72)"/><path class="cls-1" d="M281.42,318.81a4.4,4.4,0,0,1-1.14-.14l-66.1-17a4.59,4.59,0,1,1,2.28-8.89L278,308.6l58.93-261L204.34,15a4.59,4.59,0,0,1,2.19-8.92l137,33.66a4.58,4.58,0,0,1,3.38,5.46l-61,270a4.64,4.64,0,0,1-2.09,2.9A4.5,4.5,0,0,1,281.42,318.81Z"/><path class="cls-1" d="M244.37,110a51,51,0,0,1-11.15-1.26,4.59,4.59,0,0,1,2-9c7.68,1.74,15.3,1.3,21.47-1.22,5.61-2.3,9.25-6,10.27-10.55a4.6,4.6,0,0,1,5.49-3.47l54.64,12.34a4.59,4.59,0,1,1-2,8.95L274.44,94.39c-2.58,5.48-7.5,9.89-14.25,12.65A41.82,41.82,0,0,1,244.37,110Z"/><path class="cls-1" d="M60.82,317.7a4.59,4.59,0,0,1-4.5-3.66L.1,43a4.58,4.58,0,0,1,3.56-5.42L184.35.09a4.6,4.6,0,0,1,5.43,3.57l56.22,271a4.59,4.59,0,0,1-3.56,5.43L61.75,317.6A4.2,4.2,0,0,1,60.82,317.7ZM10,45.63,64.38,307.68l171.7-35.62L181.72,10Z"/><path class="cls-1" d="M102.27,109.57a42.22,42.22,0,0,1-16.6-3.24c-6.7-2.88-11.54-7.37-14-12.9L20.8,104a4.59,4.59,0,0,1-1.87-9L73.79,83.61a4.58,4.58,0,0,1,5.42,3.56c.94,4.53,4.52,8.33,10.09,10.73,6.12,2.63,13.73,3.2,21.44,1.6s14.46-5.15,19-10c4.16-4.41,5.92-9.33,5-13.85a4.58,4.58,0,0,1,3.56-5.43l54.85-11.38a4.59,4.59,0,0,1,1.87,9L144.19,78.38c-.08,6.06-2.74,12.11-7.74,17.42-5.84,6.2-14.31,10.71-23.85,12.69A50.86,50.86,0,0,1,102.27,109.57Z"/><path class="cls-1" d="M142.72,258.25a4.54,4.54,0,0,1-2.52-.75l-71.63-47a4.58,4.58,0,0,1-1.32-6.35l47-71.63a4.6,4.6,0,0,1,6.35-1.32l71.63,47a4.58,4.58,0,0,1,1.32,6.36l-47,71.62a4.57,4.57,0,0,1-2.9,2A4.88,4.88,0,0,1,142.72,258.25ZM77.45,205.33l64,42,42-64-64-42Z"/></g></g></svg>