<svg width="478" height="637" viewBox="0 0 478 637" fill="none" xmlns="http://www.w3.org/2000/svg">
<path d="M9.23645 10.3921H469.003V611.473C469.003 625.28 457.811 636.473 444.003 636.473H34.2365C20.4294 636.473 9.23645 625.28 9.23645 611.473V10.3921Z" fill="#92000D"/>
<g filter="url(#filter0_d_449_3932)">
<path fill-rule="evenodd" clip-rule="evenodd" d="M469.607 10.3921C469.607 72.3066 460.724 177.831 440.494 231.45C399.91 339.021 337.618 306.504 242.153 306.504C144.223 306.504 82.3251 340.245 41.2794 231.45C21.05 177.831 8.63317 72.3066 8.63318 10.3921" fill="#92000D"/>
</g>
<g filter="url(#filter1_d_449_3932)">
<path fill-rule="evenodd" clip-rule="evenodd" d="M457.67 123.454C462.398 82.8155 464.607 41.1488 464.607 10.3921H469.607C469.607 72.3066 460.724 177.831 440.494 231.45C408.092 317.335 361.851 313.921 295.938 309.054C279.295 307.825 261.398 306.504 242.153 306.504C222.006 306.504 203.384 307.932 186.155 309.253C119.637 314.354 73.8809 317.863 41.2794 231.45C21.05 177.831 8.63317 72.3066 8.63318 10.3921H13.6332C13.6332 41.0737 16.7145 82.7001 22.3233 123.348C27.9416 164.065 36.0435 203.408 45.9575 229.685C56.058 256.457 67.2667 273.978 79.6079 285.407C91.8594 296.752 105.534 302.379 121.161 304.836C136.953 307.318 154.63 306.553 174.863 305.089C178.406 304.832 182.023 304.555 185.714 304.272C202.95 302.949 221.796 301.504 242.153 301.504C261.601 301.504 279.723 302.842 296.378 304.072C300.354 304.366 304.247 304.654 308.054 304.915C327.959 306.283 345.441 306.936 361.099 304.381C376.598 301.852 390.214 296.188 402.409 284.891C414.688 273.515 425.834 256.143 435.816 229.685C445.705 203.473 452.931 164.19 457.67 123.454Z" fill="url(#paint0_linear_449_3932)" shape-rendering="crispEdges"/>
</g>
<mask id="mask0_449_3932" style="mask-type:alpha" maskUnits="userSpaceOnUse" x="15" y="0" width="449" height="315">
<path fill-rule="evenodd" clip-rule="evenodd" d="M463.315 0.39209C463.315 55.46 454.016 182.764 434.362 230.454C397.471 319.967 342.979 314.104 239.382 314.104C135.785 314.104 84.3879 319.967 47.4976 230.454C27.8434 182.764 15.4488 55.46 15.4488 0.39209" fill="#C4C4C4"/>
</mask>
<g mask="url(#mask0_449_3932)">
<path d="M81.8824 183.159C85.2123 187.712 87.708 193.23 92.8288 196.159C95.1755 197.501 97.7927 197.311 100.185 198.377C103.39 199.804 106.453 201.686 110.062 201.739L110.194 202.014C107.709 203.07 105.973 202.071 103.531 201.498C104.179 206.299 105.327 210.146 107.424 214.507L107.698 214.376C108.158 209.877 108.646 202.878 113.871 201.937C114.328 207.116 116.57 213.19 120.598 216.628L120.872 216.496L120.494 205.178L120.768 205.046L124.732 213.287L135.238 224.808L137.543 230.802C139.919 226.301 137.136 221.471 135.776 217.108C134.732 213.763 134.299 210.416 133.535 207.024L133.809 206.892C137.673 214.76 144.875 219.208 146.429 228.22C148.805 223.838 145.706 219.819 144.208 215.759C143.108 212.778 142.68 209.508 141.437 206.606L141.711 206.474C144.602 210.921 148.492 214.782 151.911 218.819C153.272 220.425 155.304 221.914 156.068 223.922C157.483 227.64 156.549 231.774 156.395 235.603C161.621 230.682 163.75 223.01 169.181 217.963C171.291 216.002 173.831 213.567 176.855 214.264C173.78 215.912 171.021 218.857 168.903 221.596C164.546 227.231 160.012 240.072 169.165 244.33C172.09 245.691 176.28 243.884 179.55 244.438C184.446 245.268 193.018 250.816 196.853 244.126C197.787 242.496 196.049 241.449 195.464 240.152C194.274 237.512 194.526 234.219 193.212 231.427L192.938 231.559C192.062 236.525 189.885 238.209 185.597 240.163C189.239 241.817 192.083 238.12 193.294 235.108C193.536 236.187 193.652 237.228 193.616 238.336C193.334 246.93 185.121 242.459 179.864 241.582C177.374 241.166 174.732 241.661 172.231 241.855C173.267 237.716 179.531 239.41 182.62 238.888C177.923 234.696 174.02 231.186 167.851 234.153L167.719 233.878C168.819 233.059 171.145 232.051 171.807 230.888C173.457 227.988 172.657 224.184 174.759 221.137C178.813 215.256 184.955 213.503 191.196 211.088L192.975 219.703C196.933 216.528 198.331 212.079 198.061 207.11C201.508 206.179 202.464 200.867 202.69 197.781C201.235 199.416 200.072 201.291 198.223 202.534C193.58 205.654 186.164 207.154 180.754 208.33C181.847 205.863 183.533 203.449 185.749 201.869L185.617 201.594C182.834 202.942 180.429 205.018 178.108 207.04C177.312 207.734 175.975 209.305 174.77 208.961C172.976 208.45 174.811 205.729 175.409 204.939C177.607 202.039 181.096 199.792 184.306 198.166L184.174 197.891C181.028 199.325 177.694 200.301 174.819 202.307C173.987 202.888 172.565 204.397 171.449 203.874C169.837 203.119 171.116 200.552 171.837 199.616C173.966 196.851 178.037 195.093 181.106 193.617L180.974 193.342C176.836 195.118 172.459 196.92 168.201 198.374C166.961 198.797 164.601 199.937 163.527 198.669C162.479 197.431 163.565 194.435 163.555 192.925C161.903 195.262 160.572 198.7 157.844 200.005C152.792 202.425 145.798 195.718 144.795 191.124L155.154 190.201C154.54 188.449 154.932 187.106 156.707 186.41L156.972 186.959C156.083 188.341 156.731 189.522 158.407 189.73C160.232 189.957 162.211 189.106 164.062 189.066C166.28 189.019 168.496 189.777 170.684 189.497C170.205 187.453 167.652 187.391 166.075 186.302C159.114 181.494 148.659 185.925 141.046 186.838C137.877 187.218 132.836 188.092 131.691 184.235L131.417 184.366C130.884 188.505 133.149 189.579 136.771 190.586C130.358 191.988 122.311 194.706 120.225 186.367C118.393 187.836 116.82 189.879 114.539 190.689C108.115 192.972 100.894 187.735 97.2697 182.862L102.631 179.269L102.499 178.994L81.8824 183.159L81.8824 183.159ZM105.363 178.631L105.496 178.906C109 178.478 116.579 177.068 119.71 178.946C120.733 179.559 121.045 181.006 121.513 182.026L126.073 177.466C121.323 173.706 110.614 177.255 105.363 178.631V178.631ZM92.1421 189.048C97.4921 192.182 104.119 194.631 110.219 195.748C113.186 196.291 117.083 194.863 119.527 196.849C113.82 201.668 106.396 197.798 100.264 196.109C97.2085 195.268 92.3721 192.774 92.1421 189.048V189.048ZM128.967 175.06L129.099 175.334L138.514 173.851L138.646 174.125C137.216 175.789 136.275 177.721 136.382 179.949L142.705 174.141L151.047 173.235L151.251 177.872C155.274 174.55 163.107 172.398 167.613 176.091L164.303 179.036C167.337 180.372 170.714 178.534 173.873 178.577C179.526 178.653 184.749 180.242 190.274 181.09C186.382 174.526 179.113 177.407 173.133 176.114C171.188 175.693 170.181 172.78 167.752 172.196C163.696 171.221 159.129 171.663 154.985 171.596C145.894 171.449 137.147 170.915 128.967 175.06ZM41.2776 269.318C49.4084 257.533 54.6086 243.75 62.8008 231.936C63.9697 230.251 65.9535 230.755 67.2293 229.21C72.5688 222.746 77.0928 215.101 83.4024 209.487L83.5345 209.761C79.0611 214.348 75.5635 220.402 71.945 225.678C63.4752 238.026 55.0167 251.582 50.0419 265.78C47.8181 272.127 44.9304 279.31 44.9789 286.141C49.4168 278.424 52.9815 269.178 56.1042 260.835C54.0616 273.277 49.0953 286.777 51.4521 299.601C57.995 299.25 65.0448 298.905 71.2365 296.513C65.878 291.962 60.05 291.505 56.7094 284.558C63.2625 286.358 70.0394 288.771 76.9324 288.7C72.6292 284.856 67.1544 281.641 64.0873 276.613C61.9808 273.16 61.3427 269.435 60.1173 265.669L60.3915 265.538C69.0325 278.67 88.355 274.532 101.518 273.833C97.0926 270.513 89.3666 271.194 84.1146 269.937C74.2701 267.583 68.4183 261.354 64.2579 252.517C68.0615 251.851 71.7799 251.639 75.62 252.274C78.3734 252.729 81.3271 254.009 84.1145 253.791C79.7919 248.669 77.032 242.575 74.1566 236.595C80.6718 237.851 86.3885 240.992 92.1302 244.186C97.81 247.345 103.54 250.615 107.912 255.537L108.186 255.405C102.708 244.014 92.2082 236.158 83.9654 226.804L84.2396 226.672C89.0825 230.884 95.5605 232.983 101.05 236.176C105.119 238.543 109.27 242.629 111.993 246.472L112.267 246.34C109.673 241.059 105.59 234.706 101.334 230.627C104.149 231.129 106.446 233.056 108.486 234.967L108.76 234.836C107.279 231.778 104.586 227.553 101.439 225.982C99.6289 225.079 97.6129 225.361 95.8142 224.149C92.6597 222.025 90.4485 218.982 88.2082 215.969L88.4823 215.838C92.287 218.798 96.8686 218.99 100.869 221.105C102.798 222.125 104.419 224.177 105.951 225.701C109.816 229.548 115.366 234.652 117.503 239.763C119.802 245.262 117.591 252.231 119.176 257.899C122.924 256.1 126.034 254.606 128.935 251.515L128.998 256.559L136.237 253.425L145.055 256.954C143.248 258.724 141.461 262.22 139.392 263.43C135.175 265.896 129.409 264.37 124.917 265.624L135.177 271.513L129.661 275.488L116.307 277.206L121.721 279.337L120.34 280.678L120.472 280.952C125.382 281.353 130.497 281.329 135.321 280.238L136.308 287.204C144.268 280.749 140.718 270.564 146.235 262.917C147.229 261.54 148.633 259.274 150.195 258.515C152.698 257.298 157.054 259.933 158.288 262.09C159.19 263.665 158.946 265.575 159.47 267.271C163.292 267.048 166.207 266.075 169.189 263.612C169.246 264.56 169.008 266.224 169.72 266.97C171.22 268.54 176.348 263.541 177.507 262.656L176.067 268.084C179.496 267.777 182.525 266.001 185.247 264.007C185.788 267.257 189.497 264.857 191.158 263.662C194.885 260.982 198.565 256.602 199.161 251.904C199.383 250.149 199.79 246.332 197.492 245.942C197.952 248.446 198.231 251.752 196.559 253.832L195.899 252.458C193.451 256.854 192.286 260.605 187.441 262.952L187.501 258.865L179.235 265.546L178.786 258.997L171.211 265.007L171.149 259.964C169.297 261.327 166.157 264.449 163.605 263.684C161.574 263.075 161.491 258.195 159.463 256.789C154.171 253.12 146.12 254.293 141.214 249.669C142.687 248.275 143.317 246.527 143.468 244.526C139.764 247.031 137.215 249.851 132.622 250.757L133.24 245.724L123.349 251.834L121.722 242.131L128.262 241.692C125.45 239.762 122.437 238.46 120.175 235.772C114.72 229.288 113.251 219.605 109.638 212.09L109.364 212.222L111.49 225.067L111.215 225.199C109.094 221.575 105.442 219.065 103.237 215.507C100.124 210.483 99.7031 204.733 98.6652 199.102C95.3148 199.832 91.5557 198.67 88.7619 196.762C83.0118 200.655 77.919 207.292 73.3821 212.519C61.7953 225.871 52.0423 240.348 45.8093 256.979C44.3212 260.949 42.0076 265.137 41.2776 269.318L41.2776 269.318ZM85.0675 207.333L84.9254 207.739L85.0675 207.333ZM84.6512 207.871L84.7834 208.146L83.4024 209.487L83.2703 209.212L84.6512 207.871ZM137.045 190.454L136.903 190.86L137.045 190.454ZM152.27 191.926L152.402 192.2C155.987 192.491 160.358 192.586 163.717 191.156C162.18 188.966 154.746 191.497 152.27 191.926ZM176.23 191.903L176.362 192.178C179.571 189.828 183.514 188.582 187.32 187.584C183.769 185.041 178.83 189.704 176.23 191.903ZM199.103 191.727L199.925 191.331L199.803 190.375L200.352 190.111C201.93 192.093 202.511 193.494 202.852 196.012C203.914 194.059 205.349 190.349 204.423 188.153C203.491 185.943 195.282 181.632 194.626 185.909C194.29 188.102 197.742 190.451 199.103 191.727V191.727ZM56.2463 260.428L56.1042 260.835L56.2463 260.428ZM196.243 210.352C196.254 212.575 195.651 214.806 194.112 216.45C193.973 213.895 193.238 211.015 196.243 210.352Z" fill="#B39C00"/>
<path d="M400.687 185.631C397.381 190.201 394.914 195.733 389.808 198.688C387.469 200.043 384.851 199.866 382.464 200.944C379.266 202.388 376.213 204.286 372.605 204.358L372.474 204.633C374.964 205.676 376.696 204.669 379.134 204.082C378.511 208.887 377.384 212.739 375.309 217.112L375.034 216.982C374.551 212.486 374.026 205.489 368.797 204.576C368.367 209.757 366.156 215.843 362.146 219.301L361.872 219.171L362.191 207.851L361.916 207.721L357.995 215.982L347.549 227.558L345.276 233.564C342.876 229.075 345.634 224.23 346.971 219.861C347.997 216.51 348.414 213.161 349.159 209.765L348.884 209.635C345.062 217.522 337.883 222.009 336.376 231.028C333.978 226.659 337.055 222.624 338.532 218.556C339.617 215.569 340.028 212.297 341.255 209.389L340.981 209.258C338.113 213.72 334.243 217.601 330.845 221.656C329.493 223.269 327.469 224.768 326.715 226.781C325.319 230.506 326.275 234.635 326.449 238.464C321.198 233.57 319.029 225.908 313.571 220.89C311.45 218.941 308.899 216.519 305.878 217.231C308.961 218.863 311.736 221.793 313.869 224.522C318.254 230.134 322.855 242.951 313.725 247.256C310.806 248.633 306.607 246.848 303.34 247.419C298.449 248.275 289.906 253.867 286.036 247.197C285.093 245.572 286.826 244.516 287.404 243.217C288.58 240.57 288.311 237.279 289.611 234.479L289.886 234.61C290.787 239.572 292.973 241.243 297.272 243.175C293.638 244.849 290.774 241.167 289.548 238.161C289.312 239.241 289.201 240.282 289.243 241.39C289.569 249.983 297.759 245.469 303.011 244.564C305.499 244.135 308.144 244.617 310.646 244.798C309.588 240.664 303.333 242.391 300.241 241.885C304.917 237.668 308.801 234.138 314.985 237.073L315.116 236.797C314.011 235.984 311.681 234.988 311.013 233.829C309.347 230.937 310.127 227.13 308.01 224.093C303.925 218.234 297.774 216.513 291.521 214.13L289.786 222.754C285.812 219.6 284.391 215.158 284.635 210.188C281.183 209.275 280.199 203.968 279.958 200.883C281.421 202.51 282.593 204.38 284.449 205.613C289.108 208.708 296.532 210.17 301.948 211.318C300.842 208.856 299.144 206.451 296.919 204.883L297.05 204.608C299.84 205.941 302.255 208.004 304.587 210.014C305.387 210.704 306.732 212.268 307.935 211.918C309.727 211.397 307.877 208.685 307.275 207.899C305.062 205.011 301.561 202.782 298.343 201.173L298.473 200.897C301.627 202.314 304.966 203.272 307.852 205.264C308.686 205.84 310.116 207.342 311.23 206.813C312.838 206.05 311.545 203.49 310.82 202.558C308.676 199.803 304.596 198.067 301.52 196.607L301.65 196.332C305.797 198.085 310.183 199.865 314.449 201.296C315.691 201.713 318.057 202.84 319.124 201.567C320.166 200.324 319.064 197.333 319.067 195.824C320.731 198.152 322.08 201.582 324.814 202.874C329.879 205.267 336.838 198.524 337.817 193.924L327.453 193.055C328.058 191.301 327.659 189.959 325.88 189.272L325.618 189.823C326.514 191.201 325.873 192.385 324.197 192.602C322.374 192.838 320.391 191.997 318.539 191.967C316.321 191.932 314.109 192.701 311.92 192.432C312.388 190.386 314.94 190.31 316.512 189.213C323.447 184.369 333.926 188.745 341.544 189.618C344.714 189.982 349.76 190.829 350.884 186.967L351.159 187.097C351.714 191.233 349.454 192.319 345.838 193.344C352.258 194.713 360.319 197.389 362.362 189.039C364.202 190.499 365.785 192.533 368.07 193.332C374.506 195.581 381.7 190.306 385.298 185.414L379.918 181.849L380.048 181.574L400.687 185.631L400.687 185.631ZM377.182 181.226L377.052 181.501C373.545 181.092 365.959 179.721 362.837 181.615C361.818 182.234 361.513 183.683 361.05 184.705L356.467 180.169C361.197 176.384 371.925 179.877 377.182 181.226V181.226ZM390.458 191.574C385.124 194.735 378.51 197.219 372.416 198.368C369.452 198.926 365.548 197.518 363.115 199.518C368.846 204.306 376.25 200.397 382.373 198.677C385.424 197.82 390.247 195.301 390.458 191.574V191.574ZM353.561 177.777L353.43 178.053L344.008 176.618L343.877 176.894C345.315 178.55 346.267 180.477 346.171 182.706L339.818 176.931L331.472 176.068L331.291 180.706C327.251 177.405 319.407 175.294 314.92 179.011L318.246 181.939C315.219 183.29 311.832 181.47 308.674 181.529C303.021 181.635 297.807 183.251 292.286 184.128C296.144 177.543 303.427 180.387 309.401 179.062C311.344 178.631 312.335 175.713 314.761 175.116C318.812 174.121 323.381 174.538 327.525 174.449C336.615 174.255 345.359 173.676 353.561 177.777ZM441.741 271.577C433.549 259.835 428.277 246.078 420.023 234.308C418.845 232.629 416.864 233.143 415.58 231.605C410.207 225.169 405.643 217.548 399.304 211.966L399.174 212.241C403.671 216.804 407.2 222.84 410.846 228.097C419.38 240.401 427.909 253.913 432.958 268.084C435.215 274.419 438.14 281.588 438.127 288.419C433.649 280.726 430.036 271.498 426.87 263.171C428.978 275.602 434.014 289.076 431.724 301.913C425.18 301.596 418.128 301.288 411.924 298.928C417.259 294.349 423.084 293.861 426.389 286.897C419.845 288.731 413.081 291.18 406.188 291.145C410.471 287.278 415.929 284.035 418.969 278.991C421.058 275.527 421.677 271.798 422.882 268.027L422.607 267.896C414.035 281.073 394.691 277.037 381.525 276.406C385.933 273.063 393.662 273.703 398.908 272.42C408.74 270.015 414.559 263.754 418.673 254.896C414.866 254.25 411.147 254.057 407.31 254.712C404.559 255.182 401.612 256.477 398.823 256.273C403.119 251.129 405.847 245.021 408.691 239.025C402.183 240.316 396.483 243.487 390.758 246.71C385.094 249.9 379.381 253.199 375.035 258.144L374.76 258.014C380.179 246.593 390.638 238.683 398.832 229.286L398.557 229.156C393.736 233.393 387.269 235.525 381.796 238.747C377.739 241.135 373.61 245.243 370.907 249.1L370.632 248.97C373.199 243.675 377.249 237.301 381.483 233.2C378.671 233.717 376.384 235.655 374.354 237.577L374.079 237.447C375.544 234.382 378.215 230.143 381.354 228.555C383.159 227.643 385.177 227.914 386.969 226.693C390.113 224.553 392.308 221.498 394.532 218.474L394.258 218.344C390.468 221.323 385.888 221.54 381.899 223.675C379.974 224.705 378.364 226.766 376.841 228.298C372.996 232.165 367.473 237.298 365.362 242.42C363.092 247.931 365.339 254.889 363.783 260.565C360.026 258.785 356.909 257.308 353.991 254.232L353.955 259.275L346.7 256.179L337.9 259.754C339.716 261.515 341.522 265.002 343.597 266.201C347.826 268.645 353.584 267.089 358.083 268.319L347.854 274.262L353.391 278.208L366.754 279.856L361.351 282.016L362.739 283.349L362.608 283.624C357.7 284.05 352.585 284.053 347.756 282.987L346.805 289.959C338.811 283.546 342.308 273.342 336.751 265.724C335.75 264.352 334.335 262.094 332.768 261.342C330.259 260.139 325.917 262.796 324.694 264.959C323.8 266.539 324.054 268.448 323.539 270.147C319.716 269.943 316.796 268.986 313.801 266.538C313.749 267.487 313.996 269.149 313.288 269.899C311.796 271.478 306.643 266.505 305.478 265.626L306.947 271.046C303.516 270.757 300.478 268.997 297.745 267.017C297.221 270.27 293.501 267.89 291.833 266.703C288.092 264.043 284.389 259.682 283.769 254.987C283.537 253.234 283.111 249.419 285.407 249.017C284.96 251.523 284.698 254.831 286.381 256.901L287.034 255.524C289.504 259.907 290.689 263.652 295.546 265.974L295.465 261.887L303.766 268.525L304.18 261.973L311.787 267.944L311.823 262.901C313.681 264.255 316.838 267.36 319.386 266.581C321.414 265.961 321.471 261.081 323.491 259.665C328.764 255.968 336.822 257.099 341.703 252.449C340.223 251.063 339.584 249.318 339.423 247.319C343.14 249.804 345.703 252.611 350.301 253.493L349.656 248.463L359.579 254.521L361.156 244.81L354.613 244.405C357.415 242.461 360.422 241.142 362.669 238.443C368.091 231.931 369.509 222.24 373.083 214.706L373.358 214.837L371.299 227.693L371.574 227.823C373.676 224.188 377.315 221.66 379.501 218.09C382.588 213.05 382.979 207.297 383.987 201.662C387.342 202.374 391.095 201.193 393.878 199.27C399.649 203.133 404.776 209.742 409.34 214.946C420.997 228.237 430.825 242.664 437.145 259.261C438.654 263.223 440.989 267.399 441.741 271.577L441.741 271.577ZM397.628 209.821L397.772 210.227L397.628 209.821ZM398.047 210.357L397.916 210.633L399.304 211.966L399.435 211.691L398.047 210.357ZM345.563 193.214L345.707 193.619L345.563 193.214ZM330.346 194.765L330.215 195.04C326.631 195.349 322.262 195.468 318.895 194.055C320.42 191.857 327.867 194.35 330.346 194.765ZM306.386 194.867L306.255 195.143C303.035 192.81 299.085 191.585 295.274 190.607C298.811 188.045 303.775 192.682 306.386 194.867ZM283.513 194.81L282.688 194.419L282.805 193.463L282.255 193.202C280.688 195.191 280.113 196.595 279.786 199.115C278.714 197.168 277.259 193.465 278.174 191.265C279.095 189.05 287.281 184.696 287.959 188.969C288.307 191.16 284.867 193.527 283.513 194.81V194.81ZM426.726 262.765L426.87 263.171L426.726 262.765ZM286.469 213.42C286.47 215.644 287.085 217.871 288.633 219.507C288.758 216.951 289.478 214.068 286.469 213.42Z" fill="#B39C00"/>
</g>
<g opacity="0.8">
<mask id="mask1_449_3932" style="mask-type:alpha" maskUnits="userSpaceOnUse" x="127" y="272" width="343" height="365">
<path d="M127.335 272.156H469.607V611.473C469.607 625.28 458.414 636.473 444.607 636.473H152.335C138.528 636.473 127.335 625.28 127.335 611.473V272.156Z" fill="#C4C4C4"/>
</mask>
<g mask="url(#mask1_449_3932)">
<g opacity="0.3">
<path d="M282.446 663.676C270.417 658.726 258.841 652.539 248.036 645.283C237.193 638.003 227.06 629.603 217.92 620.319C198.983 601.082 184.544 578.51 175.005 553.231C175.144 553.223 189.161 552.522 210.722 554.691C229.79 586.942 252.954 613.169 279.569 632.641C277.265 645.275 278.233 655.716 282.446 663.676Z" fill="#6F7375"/>
<path d="M282.446 663.676C270.417 658.726 258.841 652.539 248.036 645.283C237.193 638.003 227.06 629.603 217.92 620.319C198.983 601.082 184.544 578.51 175.005 553.231C175.144 553.223 189.212 552.528 210.722 554.691C229.79 586.942 252.953 613.169 279.569 632.641C277.265 645.275 278.234 655.718 282.446 663.676Z" fill="#6F7375"/>
<path d="M282.446 663.676C270.417 658.726 258.841 652.539 248.036 645.283C237.193 638.003 227.06 629.603 217.92 620.319C198.983 601.082 184.544 578.51 175.005 553.231C175.144 553.223 189.212 552.528 210.722 554.691C229.79 586.942 252.953 613.169 279.569 632.641C277.265 645.275 278.234 655.718 282.446 663.676Z" fill="#6F7375"/>
<path d="M279.569 632.641C249.413 610.579 227.066 582.337 210.722 554.691C188.963 552.502 175.005 553.231 175.005 553.231C194.439 604.729 234.198 643.819 282.446 663.676C277.944 655.171 277.411 644.479 279.569 632.641" fill="#D5B900"/>
<path d="M509.147 602.934C508.814 593.934 504.432 584.408 496.119 574.617C509.435 544.445 516.382 510.15 516.77 472.686C534.358 460.027 546.848 453.626 546.972 453.563C551.35 480.225 550.13 506.992 543.349 533.121C540.076 545.733 535.5 558.072 529.75 569.801C524.019 581.485 517.087 592.633 509.147 602.934Z" fill="#6F7375"/>
<path d="M509.147 602.934C508.814 593.934 504.432 584.408 496.119 574.617C509.435 544.445 516.382 510.15 516.77 472.686C534.316 460.058 546.848 453.626 546.972 453.563C551.35 480.225 550.13 506.992 543.349 533.121C540.076 545.733 535.5 558.072 529.75 569.801C524.019 581.485 517.087 592.633 509.147 602.934Z" fill="#6F7375"/>
<path d="M509.147 602.934C508.814 593.934 504.432 584.408 496.119 574.617C509.435 544.445 516.382 510.15 516.77 472.686C534.316 460.058 546.848 453.626 546.972 453.563C551.35 480.225 550.13 506.992 543.349 533.121C540.076 545.733 535.5 558.072 529.75 569.801C524.019 581.485 517.087 592.633 509.147 602.934Z" fill="#6F7375"/>
<path d="M546.97 453.563C546.97 453.563 534.518 459.911 516.77 472.686C516.438 504.8 511.205 540.434 496.119 574.617C503.907 583.789 508.792 593.317 509.145 602.934C541.003 561.611 555.891 507.881 546.97 453.563" fill="#D5B900"/>
<path d="M376.075 677.133C344.544 680.571 312.168 675.918 282.446 663.676C278.233 655.716 277.266 645.275 279.569 632.641C282.077 634.474 284.33 636.063 286.457 637.496C305.793 650.514 323.816 660.517 340.026 667.228C353.27 672.711 365.399 676.045 376.075 677.133" fill="#3F4143"/>
<path d="M376.075 677.133C344.545 680.571 312.168 675.918 282.446 663.676C278.234 655.718 277.266 645.275 279.569 632.641C282.079 634.476 284.332 636.065 286.457 637.496C305.793 650.514 323.816 660.517 340.026 667.228C353.271 672.714 365.4 676.045 376.075 677.133" fill="#3F4143"/>
<path d="M376.075 677.133C344.545 680.571 312.168 675.918 282.446 663.676C278.234 655.718 277.266 645.275 279.569 632.641C282.079 634.476 284.332 636.065 286.457 637.496C305.793 650.514 323.816 660.517 340.026 667.228C353.271 672.714 365.4 676.045 376.075 677.133" fill="#3F4143"/>
<path d="M286.457 637.496C284.113 635.917 281.825 634.29 279.569 632.641C277.411 644.479 277.944 655.17 282.446 663.676C311.899 675.807 344.389 680.588 376.075 677.133C357.327 675.221 328.567 665.847 286.457 637.496" fill="#B39C00"/>
<path d="M302.121 577.158C266.818 562.638 232.933 556.927 210.722 554.691C194.438 527.149 183.115 499.53 176.483 481.21C169.311 461.397 165.921 447.854 165.888 447.719C166.04 447.754 181.324 451.363 203.432 458.622C223.871 465.336 254.53 476.643 284.523 492.391C285.261 523.754 291.191 552.259 302.147 577.112L302.12 577.158" fill="#A6A9A7"/>
<path d="M302.12 577.158C266.818 562.638 232.933 556.927 210.722 554.691C194.438 527.149 183.115 499.53 176.483 481.21C169.298 461.361 165.921 447.854 165.888 447.719C166.039 447.754 181.287 451.35 203.432 458.622C223.87 465.336 254.53 476.643 284.523 492.39C285.262 523.756 291.191 552.261 302.147 577.112L302.12 577.158" fill="#A6A9A7"/>
<path d="M302.12 577.158C266.818 562.638 232.933 556.927 210.722 554.691C194.438 527.149 183.115 499.53 176.483 481.21C169.298 461.361 165.921 447.854 165.888 447.719C166.039 447.754 181.287 451.35 203.432 458.622C223.87 465.336 254.53 476.643 284.523 492.39C285.262 523.756 291.191 552.261 302.147 577.112L302.12 577.158" fill="#FFE115"/>
<path d="M302.121 577.158L302.138 577.131L302.179 577.183L302.121 577.158Z" fill="#A6A9A7"/>
<path d="M302.121 577.158L302.138 577.131L302.179 577.183L302.121 577.158Z" fill="#A6A9A7"/>
<path d="M302.121 577.158L302.138 577.131L302.179 577.183L302.121 577.158Z" fill="#A6A9A7"/>
<path d="M302.12 577.159C302.14 577.169 302.16 577.176 302.179 577.184C302.169 577.161 302.158 577.136 302.147 577.111C302.139 577.129 302.129 577.144 302.12 577.159" fill="#A6A9A7"/>
<path d="M448.805 537.817C445.865 510.816 436.749 483.165 421.705 455.633C439.806 426.999 460.704 401.876 475.047 385.843C490.565 368.501 501.997 357.734 502.11 357.628C502.148 357.762 505.985 371.187 509.68 391.93C513.098 411.111 517.1 440.691 516.77 472.685C498.651 485.728 472.162 507.618 448.849 537.844L448.805 537.817" fill="#A6A9A7"/>
<path d="M448.805 537.817C445.865 510.816 436.749 483.165 421.705 455.633C439.806 426.999 460.704 401.876 475.047 385.843C490.589 368.473 501.997 357.734 502.11 357.628C502.148 357.762 505.977 371.148 509.68 391.93C513.098 411.111 517.1 440.691 516.77 472.685C498.651 485.728 472.162 507.618 448.849 537.844L448.805 537.817" fill="#A6A9A7"/>
<path d="M448.805 537.817C445.865 510.816 436.749 483.165 421.705 455.633C439.806 426.999 460.704 401.876 475.047 385.843C490.589 368.473 501.997 357.734 502.11 357.628C502.148 357.762 505.977 371.148 509.68 391.93C513.098 411.111 517.1 440.691 516.77 472.685C498.651 485.728 472.162 507.618 448.849 537.844L448.805 537.817" fill="#A6A9A7"/>
<path d="M448.805 537.817C448.82 537.826 448.834 537.834 448.849 537.844C471.604 508.342 497.353 486.662 516.77 472.685C517.41 410.746 502.11 357.628 502.11 357.628C502.11 357.628 456.747 400.202 421.705 455.633C435.265 480.45 445.577 508.163 448.805 537.817" fill="#FFE115"/>
<path d="M448.805 537.827L448.851 537.845L448.813 537.893L448.805 537.827Z" fill="#A6A9A7"/>
<path d="M448.805 537.827L448.851 537.845L448.813 537.893L448.805 537.827Z" fill="#A6A9A7"/>
<path d="M448.805 537.827L448.851 537.845L448.813 537.893L448.805 537.827Z" fill="#A6A9A7"/>
<path d="M448.813 537.894C448.826 537.877 448.837 537.862 448.851 537.845C448.835 537.835 448.82 537.826 448.805 537.817C448.808 537.842 448.809 537.869 448.813 537.894" fill="#A6A9A7"/>
<path d="M402.536 672.374C402.244 672.451 401.952 672.527 401.659 672.599C393.284 674.67 385.617 676.075 378.223 676.896C377.506 676.978 376.791 677.055 376.075 677.132C365.4 676.044 353.271 672.713 340.027 667.229C323.816 660.516 305.793 650.514 286.457 637.495C284.33 636.063 282.077 634.476 279.569 632.64C282.359 617.342 289.946 598.675 302.12 577.157L302.177 577.181C303.444 580.053 304.55 582.428 305.658 584.658C324.419 622.42 344.93 648.524 366.623 662.245C383.731 673.066 396.821 673.143 403.1 672.228L402.536 672.375" fill="#28292A"/>
<path d="M402.536 672.374C402.244 672.451 401.952 672.527 401.659 672.599C393.284 674.67 385.617 676.075 378.223 676.896C377.506 676.978 376.791 677.055 376.075 677.132C365.399 676.044 353.271 672.713 340.027 667.229C323.816 660.516 305.793 650.514 286.457 637.495C284.332 636.065 282.079 634.476 279.569 632.64C282.359 617.342 289.946 598.675 302.12 577.157L302.177 577.181C303.444 580.053 304.55 582.428 305.658 584.658C324.419 622.42 344.93 648.524 366.623 662.245C383.731 673.066 396.821 673.143 403.1 672.228L402.536 672.375" fill="#28292A"/>
<path d="M402.536 672.374C402.244 672.451 401.952 672.527 401.659 672.599C393.284 674.67 385.617 676.075 378.223 676.896C377.506 676.978 376.791 677.055 376.075 677.132C365.399 676.044 353.271 672.713 340.027 667.229C323.816 660.516 305.793 650.514 286.457 637.495C284.332 636.065 282.079 634.476 279.569 632.64C282.359 617.342 289.946 598.675 302.12 577.157L302.177 577.181C303.444 580.053 304.55 582.428 305.658 584.658C324.419 622.42 344.93 648.524 366.623 662.245C383.731 673.066 396.821 673.143 403.1 672.228L402.536 672.375" fill="#28292A"/>
<path d="M305.658 584.659C304.429 582.185 303.284 579.689 302.177 577.182C302.159 577.174 302.14 577.167 302.12 577.158C291.47 595.982 282.692 615.512 279.57 632.641C281.825 634.29 284.113 635.917 286.457 637.496C328.567 665.847 357.327 675.221 376.075 677.133C376.791 677.056 377.507 676.979 378.223 676.897C386.139 676.019 393.909 674.515 401.657 672.6C402.138 672.48 402.619 672.353 403.101 672.228C391.788 673.88 349.62 673.147 305.658 584.659" fill="#A38E00"/>
<path d="M408.933 670.665C414.829 668.319 426.126 661.707 435.532 643.781C447.458 621.053 452.168 588.19 449.536 546.107C449.379 543.617 449.149 541.007 448.812 537.891L448.848 537.842C470.151 550.39 486.056 562.762 496.121 574.616C494.864 577.461 493.708 579.964 492.583 582.265C482.347 603.207 471.74 620.881 461.058 634.8C452.328 646.172 443.491 655.12 434.79 661.4C434.131 661.692 433.474 661.982 432.811 662.27C425.997 665.256 418.655 667.872 410.367 670.267C410.078 670.348 409.785 670.431 409.494 670.511L408.933 670.665" fill="#28292A"/>
<path d="M408.933 670.665C414.829 668.319 426.126 661.707 435.532 643.781C447.458 621.053 452.168 588.19 449.536 546.107C449.38 543.619 449.15 541.009 448.812 537.891L448.848 537.842C470.151 550.39 486.056 562.762 496.121 574.616C494.864 577.461 493.708 579.964 492.583 582.265C482.347 603.207 471.738 620.881 461.058 634.8C452.328 646.172 443.491 655.12 434.79 661.4C434.131 661.692 433.474 661.982 432.811 662.27C425.997 665.256 418.655 667.872 410.367 670.267C410.078 670.348 409.785 670.431 409.494 670.511L408.933 670.665" fill="#28292A"/>
<path d="M408.933 670.665C414.829 668.319 426.126 661.707 435.532 643.781C447.458 621.053 452.168 588.19 449.536 546.107C449.38 543.619 449.15 541.009 448.812 537.891L448.848 537.842C470.151 550.39 486.056 562.762 496.121 574.616C494.864 577.461 493.708 579.964 492.583 582.265C482.347 603.207 471.738 620.881 461.058 634.8C452.328 646.172 443.491 655.12 434.79 661.4C434.131 661.692 433.474 661.982 432.811 662.27C425.997 665.256 418.655 667.872 410.367 670.267C410.078 670.348 409.785 670.431 409.494 670.511L408.933 670.665" fill="#28292A"/>
<path d="M449.536 546.107C449.362 543.35 449.108 540.615 448.812 537.891C448.825 537.875 448.836 537.86 448.848 537.842C467.485 548.818 484.851 561.344 496.121 574.616C494.992 577.173 493.824 579.725 492.583 582.265C470.29 627.872 450.071 650.371 434.79 661.4C434.131 661.692 433.472 661.983 432.811 662.27C425.517 665.467 418.034 668.051 410.367 670.267C409.89 670.403 409.41 670.533 408.933 670.665C419.556 666.439 455.707 644.722 449.536 546.107" fill="#A38E00"/>
<path d="M393.506 510.148C373.739 501.599 359.276 496.525 359.133 496.476C359.059 496.561 351.553 505.305 341.328 518.696C339.606 520.95 337.881 523.241 336.201 525.503C321.192 513.655 303.806 502.515 284.523 492.39C284.084 473.742 285.477 453.932 288.664 433.514C291.213 417.178 294.91 400.418 299.65 383.698C307.715 355.258 316.137 336.513 316.222 336.327C316.388 336.446 333.061 348.476 354.258 369.068C366.725 381.175 378.307 393.842 388.681 406.714C401.651 422.803 412.762 439.263 421.705 455.633C410.069 474.042 400.581 492.383 393.506 510.148" fill="#A6A9A7"/>
<path d="M393.506 510.148C373.807 501.628 359.276 496.525 359.133 496.476C359.059 496.561 351.575 505.275 341.328 518.696C339.608 520.949 337.882 523.238 336.201 525.503C321.192 513.655 303.805 502.515 284.523 492.39C284.084 473.74 285.477 453.932 288.664 433.514C291.213 417.178 294.91 400.418 299.65 383.698C307.723 355.234 316.137 336.513 316.222 336.327C316.388 336.446 333.035 348.451 354.258 369.068C366.723 381.176 378.304 393.842 388.681 406.714C401.651 422.803 412.761 439.261 421.705 455.633C410.069 474.042 400.581 492.383 393.506 510.148" fill="#A6A9A7"/>
<path d="M393.506 510.148C373.807 501.628 359.276 496.525 359.133 496.476C359.059 496.561 351.575 505.275 341.328 518.696C339.608 520.949 337.882 523.238 336.201 525.503C321.192 513.655 303.805 502.515 284.523 492.39C284.084 473.74 285.477 453.932 288.664 433.514C291.213 417.178 294.91 400.418 299.65 383.698C307.723 355.234 316.137 336.513 316.222 336.327C316.388 336.446 333.035 348.451 354.258 369.068C366.723 381.176 378.304 393.842 388.681 406.714C401.651 422.803 412.761 439.261 421.705 455.633C410.069 474.042 400.581 492.383 393.506 510.148" fill="#A6A9A7"/>
<path d="M336.201 525.503C349.148 508.076 359.133 496.476 359.133 496.476C359.133 496.476 373.579 501.53 393.506 510.148C401.215 490.792 411.087 472.428 421.705 455.633C382.492 383.863 316.222 336.327 316.222 336.327C316.222 336.327 282.598 410.63 284.523 492.39C302.115 501.627 319.848 512.594 336.201 525.503Z" fill="#FEE63E"/>
<path d="M279.569 632.641C252.953 613.169 229.789 586.942 210.722 554.691C232.933 556.927 266.82 562.64 302.121 577.158C289.947 598.675 282.359 617.342 279.569 632.641Z" fill="#565A5B"/>
<path d="M279.569 632.641C252.953 613.169 229.79 586.942 210.722 554.691C232.933 556.927 266.818 562.638 302.121 577.158C289.947 598.675 282.359 617.342 279.569 632.641Z" fill="#565A5B"/>
<path d="M279.569 632.641C252.953 613.169 229.79 586.942 210.722 554.691C232.933 556.927 266.818 562.638 302.121 577.158C289.947 598.675 282.359 617.342 279.569 632.641Z" fill="#565A5B"/>
<path d="M302.12 577.158C267.664 562.988 234.524 557.087 210.722 554.691C227.066 582.337 249.414 610.579 279.569 632.641C282.692 615.512 291.47 595.982 302.12 577.158Z" fill="#C3AB00"/>
<path d="M496.119 574.617C486.055 562.765 470.152 550.392 448.849 537.845C472.162 507.619 498.652 485.728 516.77 472.686C516.382 510.15 509.435 544.445 496.119 574.617Z" fill="#565A5B"/>
<path d="M496.119 574.617C486.057 562.764 470.152 550.392 448.849 537.845C472.162 507.619 498.652 485.728 516.77 472.686C516.382 510.15 509.435 544.445 496.119 574.617Z" fill="#565A5B"/>
<path d="M496.119 574.617C486.057 562.764 470.152 550.392 448.849 537.845C472.162 507.619 498.652 485.728 516.77 472.686C516.382 510.15 509.435 544.445 496.119 574.617Z" fill="#565A5B"/>
<path d="M496.119 574.617C511.205 540.434 516.438 504.8 516.77 472.686C497.354 486.662 471.604 508.342 448.849 537.845C467.484 548.821 484.852 561.346 496.119 574.617Z" fill="#C3AB00"/>
<path d="M378.476 568.664C377.514 567.371 376.766 566.375 376.054 565.438C365.375 551.384 351.966 537.947 336.201 525.503C349.041 508.222 359.032 496.591 359.133 496.476C359.276 496.526 373.752 501.606 393.506 510.149C386.076 528.808 381.182 547.149 378.961 564.659C378.811 565.849 378.656 567.121 378.476 568.664Z" fill="#565A5B"/>
<path d="M378.476 568.664C377.521 567.379 376.774 566.385 376.054 565.438C365.375 551.384 351.966 537.947 336.201 525.503C349.001 508.275 359.032 496.591 359.133 496.476C359.276 496.526 373.807 501.628 393.506 510.149C386.076 528.808 381.182 547.149 378.961 564.659C378.812 565.834 378.657 567.106 378.476 568.664Z" fill="#565A5B"/>
<path d="M378.476 568.664C377.521 567.379 376.774 566.385 376.054 565.438C365.375 551.384 351.966 537.947 336.201 525.503C349.001 508.275 359.032 496.591 359.133 496.476C359.276 496.526 373.807 501.628 393.506 510.149C386.076 528.808 381.182 547.149 378.961 564.659C378.812 565.834 378.657 567.106 378.476 568.664Z" fill="#565A5B"/>
<path d="M378.476 568.664C378.63 567.343 378.789 566.014 378.961 564.659C381.332 545.97 386.535 527.657 393.506 510.149C373.578 501.53 359.133 496.476 359.133 496.476C359.133 496.476 349.148 508.076 336.201 525.503C350.993 537.18 364.655 550.439 376.054 565.438C376.88 566.525 377.682 567.597 378.476 568.664" fill="#D5B900"/>
<path d="M302.147 577.112C291.191 552.259 285.261 523.754 284.523 492.39C303.806 502.515 321.192 513.655 336.201 525.503C322.712 543.656 311.255 561.021 302.147 577.112" fill="#8A8D8D"/>
<path d="M302.147 577.112C291.191 552.261 285.262 523.756 284.523 492.39C303.805 502.515 321.192 513.655 336.201 525.503C322.712 543.656 311.255 561.021 302.147 577.112" fill="#8A8D8D"/>
<path d="M302.147 577.112C291.191 552.261 285.262 523.756 284.523 492.39C303.805 502.515 321.192 513.655 336.201 525.503C322.712 543.656 311.255 561.021 302.147 577.112" fill="#8A8D8D"/>
<path d="M302.146 577.112C312.902 558.111 325.551 539.836 336.201 525.503C319.848 512.594 302.115 501.627 284.523 492.39C285.188 520.662 290.115 549.819 302.146 577.112Z" fill="#E4C701"/>
<path d="M448.805 537.817C432.87 528.434 414.264 519.125 393.506 510.148C400.581 492.383 410.069 474.042 421.705 455.633C436.749 483.165 445.865 510.816 448.805 537.817Z" fill="#8A8D8D"/>
<path d="M448.805 537.817C432.87 528.434 414.264 519.125 393.506 510.148C400.581 492.383 410.069 474.042 421.705 455.633C436.749 483.165 445.865 510.816 448.805 537.817Z" fill="#8A8D8D"/>
<path d="M448.805 537.817C432.87 528.434 414.264 519.125 393.506 510.148C400.581 492.383 410.069 474.042 421.705 455.633C436.749 483.165 445.865 510.816 448.805 537.817Z" fill="#8A8D8D"/>
<path d="M393.506 510.148C409.895 517.236 429.988 526.738 448.805 537.817C445.577 508.164 435.265 480.45 421.705 455.633C411.087 472.428 401.215 490.792 393.506 510.148" fill="#E4C701"/>
<path d="M377.522 624.184C356.15 604.776 330.801 588.961 302.177 577.182L302.146 577.112C311.255 561.021 322.712 543.657 336.2 525.503C351.965 537.947 365.375 551.384 376.053 565.438C376.766 566.375 377.514 567.371 378.475 568.664C375.97 590.162 375.648 608.843 377.521 624.184" fill="#3F4143"/>
<path d="M377.522 624.184C356.151 604.776 330.801 588.961 302.177 577.182L302.146 577.112C311.255 561.021 322.711 543.657 336.2 525.503C351.965 537.947 365.375 551.384 376.053 565.438C376.773 566.385 377.521 567.379 378.475 568.664C375.97 590.162 375.648 608.843 377.521 624.184" fill="#3F4143"/>
<path d="M377.522 624.184C356.151 604.776 330.801 588.961 302.177 577.182L302.146 577.112C311.255 561.021 322.711 543.657 336.2 525.503C351.965 537.947 365.375 551.384 376.053 565.438C376.773 566.385 377.521 567.379 378.475 568.664C375.97 590.162 375.648 608.843 377.521 624.184" fill="#3F4143"/>
<path d="M377.522 624.184C375.814 610.202 375.743 592.103 378.476 568.663C377.682 567.597 376.88 566.525 376.053 565.437C364.655 550.439 350.993 537.18 336.201 525.503C325.551 539.836 312.902 558.111 302.146 577.112C302.157 577.136 302.168 577.16 302.177 577.181C327.666 587.672 353.859 602.694 377.522 624.183" fill="#B39C00"/>
<path d="M407.062 616.268C401.015 602.046 391.395 586.029 378.476 568.663C378.659 567.095 378.812 565.824 378.961 564.658C381.182 547.148 386.076 528.807 393.506 510.148C414.264 519.125 432.87 528.434 448.805 537.817L448.812 537.891C429.912 562.405 415.868 588.775 407.062 616.268" fill="#3F4143"/>
<path d="M407.062 616.268C401.015 602.046 391.395 586.029 378.476 568.663C378.659 567.103 378.811 565.831 378.961 564.658C381.182 547.148 386.076 528.807 393.506 510.148C414.264 519.125 432.87 528.434 448.805 537.817L448.812 537.891C429.912 562.405 415.865 588.775 407.062 616.268" fill="#3F4143"/>
<path d="M407.062 616.268C401.015 602.046 391.395 586.029 378.476 568.663C378.659 567.103 378.811 565.831 378.961 564.658C381.182 547.148 386.076 528.807 393.506 510.148C414.264 519.125 432.87 528.434 448.805 537.817L448.812 537.891C429.912 562.405 415.865 588.775 407.062 616.268" fill="#3F4143"/>
<path d="M393.506 510.148C386.535 527.656 381.333 545.97 378.961 564.658C378.789 566.013 378.63 567.343 378.476 568.663C392.562 587.596 401.55 603.306 407.062 616.268C416.81 585.829 431.984 559.72 448.812 537.891C448.808 537.867 448.807 537.841 448.805 537.817C429.989 526.738 409.895 517.236 393.506 510.148" fill="#B39C00"/>
<path d="M405.815 671.533C405.181 671.7 404.55 671.861 403.917 672.022L403.1 672.229C400.215 672.65 395.475 672.897 389.285 671.686C381.852 670.233 374.227 667.055 366.623 662.246C356.857 656.069 347.173 647.207 337.84 635.906C326.645 622.35 315.818 605.108 305.658 584.659C304.55 582.429 303.444 580.054 302.177 577.182C330.801 588.962 356.15 604.777 377.522 624.184C382.766 667.136 403.469 671.209 405.815 671.533" fill="#1D1E1F"/>
<path d="M405.815 671.533C405.181 671.7 404.55 671.861 403.917 672.022L403.1 672.229C400.215 672.65 395.475 672.897 389.285 671.686C381.852 670.233 374.227 667.055 366.623 662.246C356.857 656.069 347.173 647.207 337.84 635.906C326.646 622.352 315.818 605.108 305.658 584.659C304.55 582.429 303.444 580.054 302.177 577.182C330.801 588.962 356.151 604.777 377.522 624.184C382.766 667.138 403.469 671.209 405.815 671.533" fill="#1D1E1F"/>
<path d="M405.815 671.533C405.181 671.7 404.55 671.861 403.917 672.022L403.1 672.229C400.215 672.65 395.475 672.897 389.285 671.686C381.852 670.233 374.227 667.055 366.623 662.246C356.857 656.069 347.173 647.207 337.84 635.906C326.646 622.352 315.818 605.108 305.658 584.659C304.55 582.429 303.444 580.054 302.177 577.182C330.801 588.962 356.151 604.777 377.522 624.184C382.766 667.138 403.469 671.209 405.815 671.533" fill="#1D1E1F"/>
<path d="M377.522 624.184C353.859 602.694 327.665 587.672 302.177 577.182C303.284 579.688 304.429 582.185 305.658 584.659C349.62 673.147 391.788 673.88 403.1 672.228C404.006 671.998 404.907 671.773 405.814 671.53C403.437 671.205 382.764 667.121 377.522 624.184" fill="#928000"/>
<path d="M406.234 671.42C408.103 669.967 423.997 656.085 407.062 616.268C415.868 588.775 429.912 562.405 448.812 537.891C449.15 541.019 449.38 543.629 449.536 546.107C450.962 568.898 450.207 589.244 447.289 606.579C444.857 621.032 440.902 633.549 435.532 643.781C431.352 651.748 426.337 658.312 420.626 663.288C415.871 667.432 411.643 669.588 408.933 670.665L408.125 670.894C407.496 671.073 406.867 671.248 406.234 671.42" fill="#1D1E1F"/>
<path d="M406.234 671.42C408.103 669.967 423.997 656.085 407.062 616.268C415.866 588.775 429.912 562.405 448.812 537.891C449.152 541.016 449.38 543.626 449.536 546.107C450.962 568.896 450.207 589.244 447.289 606.579C444.857 621.032 440.9 633.549 435.532 643.781C431.352 651.748 426.337 658.312 420.626 663.288C415.871 667.432 411.643 669.588 408.933 670.665L408.125 670.894C407.496 671.073 406.867 671.248 406.234 671.42" fill="#1D1E1F"/>
<path d="M406.234 671.42C408.103 669.967 423.997 656.085 407.062 616.268C415.866 588.775 429.912 562.405 448.812 537.891C449.152 541.016 449.38 543.626 449.536 546.107C450.962 568.896 450.207 589.244 447.289 606.579C444.857 621.032 440.9 633.549 435.532 643.781C431.352 651.748 426.337 658.312 420.626 663.288C415.871 667.432 411.643 669.588 408.933 670.665L408.125 670.894C407.496 671.073 406.867 671.248 406.234 671.42" fill="#1D1E1F"/>
<path d="M407.062 616.268C423.992 656.074 408.13 669.948 406.234 671.418C407.14 671.175 408.034 670.919 408.933 670.665C419.556 666.439 455.707 644.722 449.536 546.107C449.362 543.35 449.108 540.615 448.812 537.891C431.984 559.72 416.81 585.829 407.062 616.268" fill="#928000"/>
<path d="M399.458 646.971C392.75 638.976 385.37 631.311 377.522 624.183C375.648 608.843 375.97 590.161 378.476 568.663C391.395 586.029 401.014 602.046 407.062 616.268C403.829 626.365 401.271 636.693 399.458 646.971" fill="#28292A"/>
<path d="M399.458 646.971C392.75 638.976 385.37 631.311 377.522 624.183C375.648 608.843 375.97 590.161 378.476 568.663C391.395 586.029 401.014 602.046 407.062 616.268C403.831 626.362 401.271 636.693 399.458 646.971" fill="#28292A"/>
<path d="M399.458 646.971C392.75 638.976 385.37 631.311 377.522 624.183C375.648 608.843 375.97 590.161 378.476 568.663C391.395 586.029 401.014 602.046 407.062 616.268C403.831 626.362 401.271 636.693 399.458 646.971" fill="#28292A"/>
<path d="M399.458 646.971C401.344 636.285 403.927 626.058 407.062 616.268C401.55 603.306 392.562 587.596 378.476 568.663C375.743 592.103 375.814 610.202 377.522 624.183C385.131 631.094 392.482 638.66 399.458 646.971" fill="#A38E00"/>
<path d="M405.815 671.532C403.469 671.208 382.766 667.137 377.522 624.183C385.37 631.311 392.75 638.976 399.458 646.971C401.271 636.693 403.831 626.362 407.062 616.268C423.997 656.085 408.103 669.967 406.234 671.42L406.024 671.476L405.815 671.532" fill="#151516"/>
<path d="M405.815 671.532C403.469 671.208 382.766 667.137 377.522 624.183C385.37 631.311 392.75 638.976 399.458 646.971C401.271 636.693 403.83 626.362 407.062 616.268C423.997 656.087 408.103 669.967 406.234 671.42C406.177 671.435 406.024 671.476 406.024 671.476L405.815 671.532" fill="#151516"/>
<path d="M405.815 671.532C403.469 671.208 382.766 667.137 377.522 624.183C385.37 631.311 392.75 638.976 399.458 646.971C401.271 636.693 403.83 626.362 407.062 616.268C423.997 656.087 408.103 669.967 406.234 671.42C406.177 671.435 406.024 671.476 406.024 671.476L405.815 671.532" fill="#151516"/>
<path d="M406.233 671.418C408.13 669.947 423.991 656.074 407.062 616.268C403.927 626.057 401.344 636.285 399.458 646.971C392.482 638.66 385.131 631.094 377.522 624.183C382.763 667.121 403.436 671.205 405.814 671.53C405.885 671.513 405.954 671.495 406.024 671.476C406.026 671.475 406.165 671.438 406.233 671.418" fill="#827300"/>
<path d="M434.788 661.398C443.491 655.12 452.327 646.169 461.055 634.798C471.74 620.88 482.346 603.204 492.583 582.262C493.708 579.963 494.864 577.463 496.119 574.617C504.432 584.408 508.816 593.934 509.147 602.933C489.528 628.394 463.817 648.612 434.788 661.398" fill="#3F4143"/>
<path d="M434.788 661.398C443.491 655.12 452.327 646.169 461.055 634.798C471.738 620.881 482.347 603.206 492.583 582.262C493.706 579.964 494.864 577.463 496.119 574.617C504.432 584.408 508.816 593.934 509.147 602.933C489.528 628.394 463.817 648.612 434.788 661.398" fill="#3F4143"/>
<path d="M434.788 661.398C443.491 655.12 452.327 646.169 461.055 634.798C471.738 620.881 482.347 603.206 492.583 582.262C493.706 579.964 494.864 577.463 496.119 574.617C504.432 584.408 508.816 593.934 509.147 602.933C489.528 628.394 463.817 648.612 434.788 661.398" fill="#3F4143"/>
<path d="M434.788 661.398C450.069 650.371 470.29 627.872 492.583 582.262C493.825 579.724 494.992 577.172 496.119 574.617C503.907 583.789 508.792 593.315 509.144 602.934C489.704 628.164 463.958 648.549 434.788 661.398" fill="#B39C00"/>
</g>
</g>
</g>
<path d="M451.743 17.1264C447.049 17.949 443.53 21.347 441.495 25.5441C439.165 30.3423 438.94 35.5702 439.692 40.7612C441.176 51.076 445.951 61.5017 442.53 71.934C441.099 76.3158 438.107 79.885 433.836 81.7519C429.273 83.743 424.17 83.8101 419.284 84.3608C414.466 84.8913 409.523 85.8617 405.796 89.1757C402.298 92.2748 400.411 96.7204 398.806 101.008C396.925 105.964 395.364 111.007 391.781 115.047C388.427 118.871 383.538 121.728 378.381 119.909C378.589 119.993 378.921 122.199 378.968 122.477C379.035 122.823 379.304 124.938 379.623 125.026C384.012 126.601 388.316 124.724 391.57 121.661C395.142 118.32 397.09 114.076 398.769 109.547C400.387 105.182 401.834 100.612 404.688 96.8279C407.67 92.8591 411.934 90.8478 416.729 89.995C425.862 88.3531 437.234 89.6626 442.392 80.1369C447.301 71.1248 444.027 60.5783 441.902 51.2976C440.491 45.1329 439.612 38.6626 441.848 32.5751C443.708 27.552 447.445 23.1736 452.908 22.2301C452.928 22.2973 451.921 17.1096 451.743 17.1264V17.1264Z" fill="url(#paint1_linear_449_3932)"/>
<path d="M30.7585 26.6592C25.4246 31.4735 24.6589 40.0879 28.4979 46.069C30.5179 49.1973 33.6111 51.5152 37.0607 52.8486C37.8394 53.1596 38.6491 53.4004 39.4653 53.6118C39.7118 53.6818 41.3702 53.9871 39.5878 53.6852C38.029 53.4173 39.0704 53.5861 39.4474 53.6233C40.0072 53.6701 40.5735 53.6875 41.1578 53.6935C43.2124 53.6704 45.355 53.3894 47.2097 52.4591C49.1656 51.4895 50.6524 49.7844 50.7744 47.5615C50.8275 46.6948 50.6684 45.8121 50.2532 45.0422C50.0488 44.6425 49.7547 44.3001 49.4183 44.0099C48.8091 43.4898 47.3335 43.1941 49.581 43.5528C49.9695 43.6079 50.358 43.663 50.7464 43.7182C46.2565 43.3257 44.6338 48.2215 44.5539 51.8561C44.4787 55.2605 45.4316 58.615 47.0712 61.5821C48.7173 64.5198 51.0322 67.0816 53.7854 68.9852C55.1588 69.9518 56.6479 70.7436 58.194 71.3476C58.9907 71.6472 59.7939 71.9173 60.6166 72.0994C60.8631 72.1693 61.134 72.1985 61.3805 72.2684C61.5389 72.3189 58.7902 71.9264 59.9278 72.0086C60.4582 72.0489 60.9707 72.1007 61.4962 72.0937C65.2907 72.1473 70.5623 70.6786 70.8617 66.1218C70.9647 64.5419 70.387 62.7652 68.9761 61.8983C68.8128 61.8005 68.6724 61.7386 68.5206 61.6588C67.3237 61.0087 71.3228 61.7395 70.3568 61.9264C70.0011 62.0018 69.647 62.0005 69.2962 62.1232C68.5115 62.3965 67.8281 62.9079 67.2901 63.5286C64.4371 66.8115 66.7959 70.9856 69.8693 73.1142C73.4897 75.6258 78.0728 76.0851 81.7601 78.5036C88.7672 83.1207 92.304 92.348 90.038 100.43C90.0055 100.577 86.904 99.8291 86.8666 99.9287C88.5339 93.9949 87.0902 87.496 83.43 82.587C81.6082 80.1651 79.2644 78.1518 76.5345 76.8389C73.1793 75.2181 69.3256 74.5965 66.3026 72.3096C63.8203 70.4351 61.8328 67.1599 63.4359 64.0935C64.0256 62.9603 65.0496 61.9541 66.2847 61.5956C67.6209 61.1978 69.2109 61.6729 70.5461 61.9066C71.7638 62.1144 72.781 62.6015 73.4315 63.7008C74.1393 64.8899 74.2679 66.3978 73.928 67.7249C72.9766 71.259 68.79 72.4901 65.5587 72.6073C62.8236 72.711 59.9296 72.2093 57.2753 71.5296C54.6097 70.8319 52.0969 69.5825 49.9117 67.897C45.4941 64.5309 42.2859 59.46 41.5725 53.9086C41.2026 50.9142 41.3379 47.1686 43.5047 44.828C45.5508 42.6148 48.7058 43.0509 51.3471 43.7894C54.3344 44.6353 54.6562 48.5437 53.0818 50.7842C50.9906 53.758 46.6761 54.3135 43.3092 54.1387C37.1056 53.8294 30.6086 51.9912 26.5127 47.032C22.5376 42.2229 21.8391 35.0721 24.8843 29.5972C25.6077 28.2779 26.5402 27.1281 27.6703 26.13C27.8268 25.9797 29.0413 26.3409 29.2649 26.3749C29.376 26.4303 30.6019 26.8095 30.7585 26.6592V26.6592Z" fill="url(#paint2_linear_449_3932)"/>
<path d="M310.242 153.129C311.96 154.979 313.651 156.828 315.368 158.678C315.527 158.836 321.472 153.552 321.552 153.631C319.834 151.781 318.143 149.932 316.425 148.082C316.267 147.923 310.295 153.208 310.242 153.129Z" fill="url(#paint3_linear_449_3932)"/>
<path d="M107.994 140.452C110.345 141.773 113.067 141.826 115.472 140.637C115.657 140.558 115.392 138.232 115.392 137.968C115.392 137.704 115.102 135.379 115.26 135.299C112.856 136.488 110.134 136.409 107.782 135.114C107.967 135.22 107.861 137.493 107.861 137.783C107.861 138.127 107.703 140.293 107.994 140.452Z" fill="url(#paint4_linear_449_3932)"/>
<path d="M257.447 142.222C257.288 144.653 258.53 146.899 260.644 148.061C260.935 148.22 262.785 147.216 263.128 147.084C263.709 146.846 264.291 146.608 264.872 146.37C264.978 146.317 265.533 146.027 265.586 146.053C263.445 144.89 262.203 142.644 262.388 140.213C262.388 140.372 260.142 141.085 259.904 141.191C259.64 141.297 257.473 141.957 257.447 142.222V142.222Z" fill="url(#paint5_linear_449_3932)"/>
<path d="M332.875 101.835C335.306 103.367 338.16 103.843 340.961 103.182C341.543 103.05 342.441 101.729 342.864 101.332C343.313 100.883 343.762 100.434 344.185 99.9848C344.291 99.8791 344.581 99.4563 344.713 99.4299C341.912 100.091 339.059 99.6149 336.628 98.0823C336.258 97.8445 333.166 102.019 332.875 101.835Z" fill="url(#paint6_linear_449_3932)"/>
<path d="M257.433 195.849C259.019 197.276 260.631 198.703 262.216 200.104C262.375 200.236 264.409 199.152 264.647 199.02C264.885 198.915 266.92 197.778 267.052 197.91C265.466 196.484 263.854 195.057 262.269 193.656C262.11 193.524 260.076 194.607 259.838 194.74C259.6 194.845 257.565 195.982 257.433 195.849Z" fill="url(#paint7_linear_449_3932)"/>
<path d="M200.135 138.629C200.796 141.113 202.751 142.989 205.262 143.517C205.314 143.517 205.922 142.962 205.869 143.015C206.345 142.592 206.821 142.196 207.296 141.773C207.772 141.35 208.248 140.954 208.697 140.531C208.776 140.452 209.199 139.976 209.278 140.003C206.768 139.474 204.812 137.572 204.152 135.114C204.205 135.273 202.329 136.7 202.144 136.858C201.906 137.043 200.082 138.364 200.135 138.629V138.629Z" fill="url(#paint8_linear_449_3932)"/>
<path d="M419.238 67.7229C420.084 70.6824 418.657 73.8798 415.909 75.2538C416.146 75.1217 417.996 76.258 418.313 76.4165C418.657 76.5751 420.374 77.6849 420.744 77.5263C423.519 76.1523 424.919 72.9549 424.074 69.9954C423.968 69.6519 422.013 69.0177 421.669 68.8328C421.088 68.5685 420.533 68.3043 419.951 68.04C419.846 67.9872 419.238 67.7758 419.238 67.7229Z" fill="url(#paint9_linear_449_3932)"/>
<path d="M228.141 221.824C230.81 221.877 233.241 220.529 234.588 218.23C234.853 217.781 234.43 216.116 234.404 215.588C234.351 214.954 234.298 214.346 234.245 213.712C234.219 213.553 234.086 213.051 234.166 212.945C232.818 215.244 230.387 216.618 227.718 216.539C227.85 216.539 227.93 221.824 228.141 221.824Z" fill="url(#paint10_linear_449_3932)"/>
<path d="M284.64 73.8463C284.297 72.9478 283.927 72.0759 283.583 71.1774C283.61 71.2303 283.24 71.9437 283.266 71.8909C283.002 72.4722 282.764 73.0535 282.526 73.6084C282.288 74.1898 282.024 74.7711 281.786 75.3525C281.734 75.4846 281.443 75.9602 281.496 76.0659C281.839 76.9643 282.209 77.8363 282.553 78.7348C282.526 78.6819 282.896 77.9684 282.87 78.0213C283.134 77.44 283.372 76.8586 283.61 76.3037C283.848 75.7224 284.112 75.1411 284.35 74.5597C284.429 74.4276 284.693 73.952 284.64 73.8463Z" fill="url(#paint11_linear_449_3932)"/>
<path d="M230.188 142.313C229.237 144.612 231.193 147.36 233.676 147.228C234.073 147.201 234.945 146.25 235.235 145.986C235.605 145.695 235.975 145.404 236.319 145.087C236.398 145.008 236.662 144.717 236.768 144.717C234.284 144.849 232.355 142.101 233.28 139.802C233.254 139.882 232.831 140.146 232.804 140.146C232.434 140.436 232.065 140.727 231.695 141.018C231.325 141.308 230.955 141.599 230.611 141.916C230.532 142.022 230.241 142.18 230.188 142.313V142.313Z" fill="url(#paint12_linear_449_3932)"/>
<path d="M245.855 183.21C247.811 183.21 249.766 183.184 251.721 183.184C251.827 183.184 251.88 179.194 251.933 179.194C249.977 179.194 248.022 179.22 246.067 179.22C245.961 179.22 245.908 183.21 245.855 183.21Z" fill="url(#paint13_linear_449_3932)"/>
<path d="M257.632 227.598C257.315 229.21 256.998 230.796 256.654 232.408C256.654 232.355 258.477 232.328 258.636 232.328C258.795 232.328 260.618 232.328 260.618 232.223C260.935 230.611 261.252 229.025 261.596 227.413C261.596 227.466 259.772 227.493 259.614 227.493C259.455 227.493 257.658 227.466 257.632 227.598Z" fill="url(#paint14_linear_449_3932)"/>
<path d="M88.0011 56.0162C89.7333 51.1346 91.4314 46.2686 93.1636 41.3871C93.265 41.1147 87.895 39.4827 87.9319 39.3837C86.1997 44.2652 84.5015 49.1312 82.7694 54.0127C82.668 54.2851 88.0287 55.9419 88.0011 56.0162Z" fill="url(#paint15_linear_449_3932)"/>
<path d="M132.805 115.546C130.982 118.638 129.159 121.729 127.336 124.821C127.521 124.53 134.523 128.177 134.761 127.78C136.584 124.689 138.407 121.597 140.231 118.506C140.046 118.796 133.017 115.15 132.805 115.546V115.546Z" fill="url(#paint16_linear_449_3932)"/>
<path d="M354.762 123.755C354.154 126.053 353.573 128.326 352.965 130.625C352.938 130.731 356.77 131.814 356.743 131.867C357.351 129.568 357.933 127.295 358.54 124.996C358.593 124.891 354.762 123.807 354.762 123.755Z" fill="url(#paint17_linear_449_3932)"/>
<path d="M261.509 113.578C262.249 116.221 262.989 118.89 263.729 121.532C263.835 121.928 267.64 121.268 267.719 121.611C266.979 118.969 266.239 116.3 265.499 113.658C265.394 113.261 261.589 113.922 261.509 113.578Z" fill="url(#paint18_linear_449_3932)"/>
<path d="M265.665 256.718C268.704 258.092 271.769 259.492 274.808 260.866C274.781 260.866 276.393 257.22 276.34 257.167C273.302 255.793 270.236 254.393 267.198 253.018C267.224 253.045 265.612 256.691 265.665 256.718Z" fill="url(#paint19_linear_449_3932)"/>
<path d="M274.015 221.309C275.574 223.318 277.714 224.639 280.225 225.115C280.436 225.167 281.493 223.925 281.678 223.74C281.863 223.582 282.893 222.314 283.105 222.34C280.621 221.838 278.481 220.517 276.895 218.535C276.974 218.641 273.909 221.177 274.015 221.309Z" fill="url(#paint20_linear_449_3932)"/>
<path d="M287.782 205.587C288.68 206.459 289.579 207.331 290.477 208.229C290.556 208.309 290.953 208.414 291.032 208.441C291.481 208.599 291.931 208.758 292.353 208.916C292.803 209.075 293.252 209.234 293.675 209.366C293.807 209.418 294.15 209.445 294.229 209.551C293.331 208.679 292.433 207.807 291.534 206.908C291.455 206.829 291.059 206.723 290.979 206.697C290.53 206.538 290.081 206.38 289.658 206.221C289.209 206.063 288.76 205.904 288.337 205.772C288.205 205.719 287.861 205.666 287.782 205.587Z" fill="url(#paint21_linear_449_3932)"/>
<path d="M226.548 250.295C227.688 253.011 231.504 253.922 233.745 251.985C233.821 251.909 233.897 251.15 233.897 251.169C234.01 250.504 234.124 249.84 234.238 249.175C234.352 248.511 234.466 247.846 234.561 247.181C234.58 247.03 234.58 246.422 234.675 246.346C232.435 248.264 228.637 247.371 227.479 244.656C227.517 244.751 227.327 245.492 227.327 245.473C227.213 246.137 227.099 246.802 226.985 247.466C226.871 248.131 226.757 248.795 226.662 249.46C226.643 249.65 226.491 250.125 226.548 250.295Z" fill="url(#paint22_linear_449_3932)"/>
<path d="M316.004 104.043C314.022 108.414 311.617 114.766 316.196 118.463C318.112 120.013 320.322 119.562 322.574 119.18C324.283 118.892 325.944 117.697 326.426 115.964C327.093 113.535 324.894 111.872 322.734 111.59C321.601 111.445 320.491 111.559 319.368 111.698C318.147 111.849 316.895 111.968 315.691 112.297C310.338 113.727 305.371 116.792 301.519 120.766C299.556 122.796 297.874 125.062 296.529 127.547C295.315 129.805 294.309 132.323 294.418 134.93C294.54 137.328 295.815 139.741 298.024 140.807C298.926 141.251 299.881 141.351 300.867 141.236C301.953 141.109 303.155 141.088 304.205 140.727C305.898 140.137 307.287 138.293 307.141 136.456C306.961 134.384 304.941 133.462 303.067 133.62C300.773 133.811 298.534 134.107 296.516 135.274C294.244 136.605 292.281 138.635 290.583 140.599C286.857 144.9 284.19 150.129 282.895 155.67C281.758 160.565 282.63 167.104 278.276 170.605C277.836 170.953 277.359 171.251 276.84 171.481C276.605 171.578 276.333 171.625 276.129 171.753C275.727 171.965 277.622 171.555 277.671 171.58C277.579 171.549 277.233 171.558 277.153 171.564C276.187 171.488 275.19 172.016 274.224 171.941C275.295 172.023 276.393 171.81 277.454 171.671C278.38 171.555 279.25 171.396 280.091 170.959C281.947 169.988 283.231 168.199 283.912 166.258C284.77 163.849 284.852 161.262 285.181 158.738C285.516 156.11 286.147 153.509 287.085 151.033C288.88 146.211 291.725 141.785 295.396 138.197C297.023 136.584 298.804 135.002 300.968 134.157C301.388 134 301.808 133.905 302.215 133.773C300.257 134.429 300.033 133.928 301 134.003C301.228 134.011 301.467 134.056 301.689 134.108C302.581 134.33 303.377 134.891 303.826 135.708C304.659 137.2 303.953 139.067 302.798 140.18C302.519 140.455 302.19 140.705 301.838 140.88C301.646 140.984 301.442 141.05 301.244 141.134C300.205 141.594 303.813 141.161 302.57 140.929C301.475 140.711 300.548 140.377 299.691 139.631C295.793 136.266 297.446 130.752 299.578 126.906C301.998 122.557 305.497 118.82 309.641 116.062C311.797 114.626 314.136 113.437 316.582 112.582C317.095 112.395 317.614 112.226 318.121 112.083C318.417 111.986 318.72 111.909 319.01 111.856C320.899 111.427 317.205 111.847 318.547 111.944C319.736 112.009 320.887 112.086 321.917 112.736C323.787 113.89 324.027 116.209 322.677 117.856C322.042 118.615 321.268 119.071 320.36 119.427C319.272 119.862 322.954 119.405 321.778 119.253C321.458 119.214 321.163 119.187 320.862 119.08C320.339 118.921 319.83 118.677 319.383 118.371C317.348 116.963 316.377 114.348 316.397 111.945C316.432 109.025 317.681 106.306 318.86 103.69C318.81 103.788 317.559 103.846 317.398 103.857C317.281 103.875 316.079 103.896 316.004 104.043V104.043Z" fill="url(#paint23_linear_449_3932)"/>
<path d="M248.395 231.37C244.852 231.91 242.195 228.949 241.283 225.786C241.062 225.008 240.921 224.176 240.888 223.371C240.884 222.968 240.881 222.565 240.932 222.161C240.956 221.866 241.034 221.596 241.086 221.3C240.474 225.362 240.249 224.182 240.75 222.915C241.566 220.893 242.787 219.083 244.063 217.327C246.534 213.948 249.088 210.757 250.264 206.637C251.335 202.92 252.672 198.852 250.414 195.297C247.039 189.924 239.299 189.718 235.844 184.48C234.838 182.956 234.447 181.159 234.567 179.331C234.59 178.821 234.666 178.337 234.743 177.852C235.103 175.807 234.558 178.203 234.506 178.499C234.558 178.203 234.69 177.906 234.768 177.637C235.082 176.587 235.369 175.537 235.656 174.46C236.699 170.582 237.663 166.84 235.966 162.984C231.614 153.132 219.651 152.262 210.353 152.014C210.004 152.017 209.579 155.943 209.31 155.946C217.856 156.172 227.801 156.71 233.37 164.241C234.511 165.79 235.385 167.584 235.75 169.461C235.918 170.374 235.979 171.287 235.933 172.227C235.911 172.819 235.835 173.383 235.732 173.948C235.681 174.271 235.316 175.671 235.76 174.083C236.178 172.575 235.865 173.706 235.76 174.029C235.159 176.129 234.558 178.203 234.038 180.33C233.596 182.187 233.316 184.124 233.761 186.001C235.344 192.383 243.493 193.365 247.77 197.28C249.015 198.425 249.967 199.842 250.41 201.477C250.659 202.415 250.748 203.409 250.675 204.376C250.652 204.887 250.187 207.121 250.681 205.129C251.176 203.163 250.442 205.426 250.204 205.885C248.328 209.823 245.182 212.911 243.01 216.663C241.897 218.58 241.295 220.627 240.721 222.754C240.2 224.666 239.704 226.497 240.015 228.483C240.582 232.078 243.407 235.844 247.405 235.247C247.566 235.219 247.901 233.497 247.953 233.282C247.925 233.147 248.26 231.371 248.395 231.37V231.37Z" fill="url(#paint24_linear_449_3932)"/>
<path d="M156.318 83.7129C161.437 83.527 167.805 85.922 171.496 91.5839C173.127 94.0811 174.13 97.0052 173.96 99.5671C173.88 100.753 173.584 101.864 172.983 102.726C172.915 102.81 172.846 102.894 172.792 102.996C172.385 103.677 173.652 102.267 173.681 102.275C173.483 102.307 173.29 102.518 173.108 102.599C172.646 102.837 172.139 102.988 171.617 103.091C169.372 103.501 166.71 102.717 164.636 100.596C163.971 101.174 163.291 101.763 162.626 102.341C167.862 99.7259 175.565 102.175 181.135 107.499C187.069 113.178 189.124 121.266 187.065 127.363C186.515 129.006 185.69 130.468 184.601 131.648C184.408 131.859 183.509 132.681 184.7 131.632C185.85 130.616 184.948 131.378 184.613 131.578C184.251 131.8 183.902 132.01 183.523 132.183C182.752 132.54 181.922 132.791 181.061 132.945C180.493 133.448 179.925 133.95 179.357 134.453C179.412 134.41 179.468 134.366 179.537 134.312C179.44 134.388 179.329 134.475 179.232 134.55C181 133.326 183.875 134.643 185.692 136.691C188.197 139.51 188.502 143.342 188.344 146.32C188.168 149.706 187.298 153.117 188.508 156.851C189.409 159.643 191.519 162.527 194.251 163.316C194.48 163.381 195.111 162.587 195.278 162.457C195.431 162.338 196.046 161.495 196.261 161.571C193.442 160.757 191.257 157.689 190.425 154.814C189.295 150.925 190.306 147.466 190.391 143.877C190.462 140.816 189.899 136.911 187.074 134.311C184.889 132.305 182.462 131.794 180.798 133.21C180.438 133.521 180.064 133.842 179.703 134.153C179.565 134.291 179.306 134.674 179.108 134.707C182.343 134.134 184.979 131.962 186.97 129.562C189.044 127.068 190.111 123.566 189.918 119.707C189.542 111.77 183.441 104.157 176.058 101.002C172.022 99.2831 167.898 98.9989 164.678 100.593C164.44 100.717 162.713 102.395 162.669 102.339C167.3 107.087 172.421 104.439 174.899 101.175C178.185 96.8273 174.055 88.6818 168.889 85.1087C165.503 82.7626 161.717 81.8515 158.357 81.9755C158.03 81.9863 157.58 82.6402 157.33 82.8347C157.08 83.0293 156.645 83.7021 156.318 83.7129V83.7129Z" fill="url(#paint25_linear_449_3932)"/>
<path d="M218.147 626.017C217.966 626.097 216.799 626.449 214.648 627.074C212.488 627.704 210.007 628.491 207.206 629.435C204.396 630.384 202.818 630.897 202.473 630.973C202.123 631.041 201.801 631.01 201.505 630.88C201.206 630.742 200.952 630.437 200.743 629.965C200.611 629.666 200.62 629.343 200.77 628.995C200.92 628.647 201.144 628.407 201.443 628.275C201.833 628.102 202.504 627.904 203.456 627.678C204.766 627.381 207.366 626.645 211.257 625.468C215.143 624.282 217.331 623.581 217.821 623.365C218.138 623.225 218.336 623.083 218.414 622.941C218.478 622.793 218.453 622.587 218.337 622.324C218.148 621.898 217.572 620.95 216.609 619.479C216.022 618.568 215.055 616.784 213.709 614.128C213.474 613.647 213.104 613.09 212.597 612.458C212.5 612.338 212.438 612.246 212.41 612.182C212.258 611.838 212.251 611.516 212.39 611.216C212.528 610.917 212.756 610.697 213.074 610.556C213.59 610.328 214.091 610.345 214.576 610.608C215.051 610.875 215.397 611.253 215.613 611.743C215.697 611.933 215.836 612.322 216.03 612.908C216.237 613.499 216.403 613.935 216.527 614.216C217.833 617.172 219.555 619.82 221.693 622.158C222.051 622.553 222.313 622.936 222.477 623.308C222.657 623.716 222.621 624.111 222.367 624.494C222.11 624.868 221.813 625.129 221.478 625.277C221.278 625.365 220.805 625.471 220.058 625.595C219.185 625.753 218.548 625.894 218.147 626.017Z" fill="#B39C00"/>
<path d="M199.061 605.145C199.242 605.065 200.409 604.712 202.56 604.087C204.72 603.458 206.191 602.99 208.992 602.045C211.802 601.096 212.928 600.719 213.274 600.642C213.623 600.575 213.946 600.606 214.241 600.735C214.541 600.874 214.795 601.179 215.003 601.65C215.135 601.949 215.126 602.273 214.977 602.621C214.827 602.969 214.602 603.209 214.303 603.341C213.913 603.513 213.243 603.712 212.291 603.937C210.981 604.234 209.842 604.517 205.951 605.694C202.065 606.88 199.877 607.581 199.387 607.797C199.07 607.937 198.872 608.079 198.794 608.221C198.73 608.369 198.755 608.574 198.871 608.837C199.06 609.264 199.636 610.212 200.599 611.683C201.186 612.594 202.153 614.377 203.499 617.033C203.734 617.515 204.104 618.072 204.611 618.704C204.708 618.824 204.77 618.916 204.798 618.979C204.95 619.324 204.957 619.646 204.818 619.946C204.68 620.245 204.452 620.465 204.134 620.605C203.618 620.834 203.117 620.816 202.632 620.554C202.157 620.287 201.811 619.909 201.595 619.419C201.511 619.229 201.372 618.84 201.178 618.254C200.971 617.663 200.805 617.227 200.681 616.945C199.375 613.99 197.653 611.342 195.515 609.003C195.157 608.609 194.895 608.226 194.731 607.854C194.551 607.446 194.587 607.051 194.841 606.668C195.098 606.294 195.395 606.033 195.73 605.885C195.93 605.797 196.403 605.691 197.15 605.567C198.023 605.408 198.66 605.268 199.061 605.145Z" fill="#D5B900"/>
<path d="M288.383 614.485C287.388 614.485 286.601 614.701 286.024 615.133C285.446 615.56 285.157 616.138 285.157 616.866C285.157 617.346 285.291 617.747 285.558 618.067C285.83 618.383 286.159 618.613 286.548 618.759C286.936 618.9 287.32 619.023 287.698 619.13C288.082 619.232 288.407 619.346 288.674 619.472C288.946 619.594 289.082 619.749 289.082 619.938C289.082 620.356 288.708 620.564 287.96 620.564C287.057 620.564 286.189 620.331 285.354 619.866L285.353 619.866C285.304 619.84 285.254 619.814 285.213 619.793C284.998 619.698 284.806 619.762 284.637 619.984C284.467 620.2 284.365 620.454 284.329 620.748C284.293 621.041 284.364 621.254 284.541 621.388C284.575 621.406 284.614 621.425 284.655 621.446H284.655C285.718 622.004 286.841 622.283 288.026 622.283C289.006 622.283 289.8 622.055 290.407 621.598C291.013 621.142 291.317 620.535 291.317 619.778C291.317 619.288 291.181 618.885 290.909 618.57C290.637 618.249 290.307 618.021 289.919 617.885C289.531 617.744 289.14 617.628 288.747 617.536C288.354 617.439 288.018 617.332 287.742 617.215C287.47 617.094 287.334 616.934 287.334 616.735C287.339 616.346 287.688 616.152 288.383 616.152C288.955 616.152 289.635 616.276 290.421 616.524L290.989 614.871C290.048 614.614 289.179 614.485 288.383 614.485V614.485Z" fill="#B39C00"/>
<path d="M254.802 622.038C254.802 621.84 254.951 620.63 255.248 618.41C255.546 616.18 255.711 614.645 255.979 611.701C256.246 608.747 256.356 607.564 256.426 607.218C256.505 606.871 256.664 606.588 256.902 606.37C257.149 606.152 257.531 606.043 258.047 606.043C258.374 606.043 258.666 606.182 258.924 606.459C259.182 606.737 259.31 607.039 259.31 607.366C259.31 607.792 259.221 608.486 259.043 609.448C258.785 610.766 258.584 611.922 258.088 615.957C257.602 619.991 257.36 622.276 257.36 622.811C257.36 623.158 257.409 623.396 257.508 623.525C257.617 623.644 257.816 623.703 258.103 623.703C258.569 623.703 259.669 623.559 261.404 623.272C262.474 623.103 264.497 622.94 267.47 622.781C268.005 622.762 268.665 622.648 269.448 622.439C269.596 622.4 269.705 622.38 269.775 622.38C270.152 622.38 270.449 622.504 270.667 622.752C270.885 622.999 270.994 623.297 270.994 623.644C270.994 624.209 270.776 624.66 270.34 624.997C269.904 625.324 269.418 625.487 268.883 625.487C268.675 625.487 268.263 625.458 267.649 625.398C267.024 625.349 266.558 625.324 266.251 625.324C263.02 625.324 259.902 625.829 256.899 626.84C256.393 627.009 255.937 627.093 255.531 627.093C255.085 627.093 254.738 626.9 254.49 626.513C254.252 626.127 254.133 625.75 254.133 625.383C254.133 625.165 254.227 624.689 254.416 623.956C254.624 623.094 254.753 622.454 254.802 622.038Z" fill="#B39C00"/>
<path d="M264.196 622.312C262.914 622.312 261.895 621.948 261.138 621.22C260.381 620.487 260.002 619.555 260.002 618.424C260.002 617.288 260.388 616.354 261.16 615.621C261.931 614.883 262.943 614.514 264.196 614.514C265.477 614.514 266.494 614.883 267.246 615.621C268.004 616.354 268.382 617.286 268.382 618.417C268.382 619.538 267.996 620.467 267.225 621.205C266.458 621.943 265.448 622.312 264.196 622.312ZM262.783 619.953C263.128 620.351 263.599 620.55 264.196 620.55C264.793 620.55 265.261 620.351 265.601 619.953C265.946 619.555 266.118 619.048 266.118 618.431C266.118 617.805 265.948 617.293 265.608 616.895C265.273 616.497 264.802 616.298 264.196 616.298C263.589 616.298 263.116 616.497 262.776 616.895C262.441 617.293 262.274 617.805 262.274 618.431C262.274 619.048 262.443 619.555 262.783 619.953Z" fill="#B39C00"/>
<path d="M271.998 611.847C271.645 611.848 271.288 611.929 270.929 612.089C270.569 612.25 270.369 612.446 270.327 612.677C270.328 612.721 270.33 612.771 270.333 612.825C270.333 612.825 270.333 612.826 270.333 612.826V614.718H269.278L269.169 616.407H270.333V619.836C270.324 620.671 270.523 621.283 270.93 621.671C271.338 622.055 271.884 622.246 272.569 622.246C273.321 622.246 274.071 622.118 274.818 621.86L274.644 620.266C274.158 620.334 273.741 620.368 273.391 620.368C273.095 620.368 272.887 620.307 272.765 620.186C272.644 620.06 272.583 619.863 272.583 619.596V616.407H274.716L274.84 614.718H272.583V614.117C272.588 613.955 272.59 613.778 272.588 613.581C272.592 613.266 272.592 612.967 272.586 612.684C272.586 612.485 272.584 612.322 272.58 612.194C272.553 611.957 272.36 611.842 271.998 611.847L271.998 611.847Z" fill="#B39C00"/>
<path d="M282.681 614.009C282.459 614.013 282.233 614.048 282.003 614.114C281.635 614.219 281.42 614.383 281.358 614.605C281.355 614.639 281.353 614.677 281.351 614.718H281.349V614.769C281.348 614.838 281.348 614.914 281.349 614.999V620.535C280.883 620.603 280.471 620.637 280.112 620.637C279.495 620.637 279.056 620.506 278.794 620.244C278.532 619.977 278.401 619.492 278.401 618.788C278.396 618.55 278.464 617.193 278.604 614.718H276.355C276.214 616.727 276.143 618.264 276.143 619.327C276.143 620.312 276.452 621.052 277.068 621.547C277.69 622.038 278.67 622.283 280.01 622.283C281.082 622.283 282.279 622.123 283.599 621.802V614.718H283.597C283.605 614.622 283.611 614.533 283.616 614.46C283.612 614.224 283.432 614.081 283.076 614.033C282.946 614.014 282.814 614.006 282.681 614.009Z" fill="#B39C00"/>
<path d="M232.101 622.038C232.101 621.84 232.25 620.63 232.547 618.41C232.844 616.18 233.127 613.592 233.395 610.649C233.662 607.695 233.831 606.044 233.9 605.697C233.979 605.35 234.138 605.068 234.376 604.85C234.624 604.632 235.005 604.523 235.521 604.523C235.848 604.523 236.14 604.661 236.398 604.939C236.656 605.217 236.785 605.519 236.785 605.846C236.785 606.272 236.695 606.966 236.517 607.928C236.259 609.246 235.883 611.922 235.387 615.957C234.901 619.991 234.658 622.276 234.658 622.811C234.658 623.158 234.708 623.396 234.807 623.525C234.916 623.644 235.114 623.703 235.402 623.703C235.868 623.703 236.968 623.559 238.703 623.272C239.773 623.103 241.795 622.94 244.769 622.781C245.304 622.761 245.963 622.647 246.747 622.439C246.895 622.4 247.004 622.38 247.074 622.38C247.45 622.38 247.748 622.504 247.966 622.752C248.184 622.999 248.293 623.297 248.293 623.644C248.293 624.209 248.075 624.66 247.639 624.997C247.202 625.324 246.717 625.487 246.182 625.487C245.973 625.487 245.562 625.458 244.947 625.398C244.323 625.349 243.857 625.324 243.55 625.324C240.318 625.324 237.201 625.829 234.197 626.84C233.692 627.009 233.236 627.093 232.83 627.093C232.383 627.093 232.037 626.9 231.789 626.513C231.551 626.127 231.432 625.75 231.432 625.383C231.432 625.165 231.526 624.689 231.714 623.956C231.923 623.094 232.051 622.454 232.101 622.038Z" fill="#D5B900"/>
<path d="M240.035 622.101H237.785V614.718H240.035V622.101Z" fill="#D5B900"/>
<path d="M242.712 613.469C242.601 613.468 242.472 613.526 242.324 613.642C242.066 613.842 241.847 614.104 241.671 614.428C241.494 614.753 241.453 615.015 241.548 615.215C241.599 615.287 241.669 615.372 241.755 615.469L244.032 618.344L241.156 622.101H243.646L245.211 619.909L246.806 622.101H249.34L246.507 618.358L249.311 614.718H246.864L245.328 616.808L243.763 614.718L243.761 614.719C243.537 614.404 243.298 614.07 243.209 613.95C243.101 613.798 243.011 613.675 242.939 613.58C242.874 613.507 242.799 613.471 242.712 613.47L242.712 613.469Z" fill="#D5B900"/>
<path d="M252.689 622.101H250.439V614.718H252.689V622.101Z" fill="#D5B900"/>
<path d="M239.638 613.378C239.567 613.567 239.414 613.687 239.181 613.736C238.947 613.785 238.718 613.782 238.494 613.728C238.269 613.667 238.139 613.56 238.104 613.407C238.066 612.961 238.068 612.52 238.11 612.084C238.157 611.638 238.206 611.311 238.257 611.104C238.346 610.894 238.553 610.764 238.879 610.712C239.205 610.661 239.509 610.685 239.792 610.785C240.082 610.883 240.209 611.049 240.173 611.283C240.145 611.406 240.107 611.563 240.06 611.754C239.996 612.027 239.924 612.313 239.845 612.614C239.772 612.912 239.703 613.167 239.638 613.378Z" fill="#D5B900"/>
<path d="M252.718 613.039C252.752 613.238 252.68 613.418 252.502 613.578C252.324 613.738 252.125 613.85 251.905 613.915C251.679 613.975 251.512 613.948 251.406 613.833C251.15 613.467 250.93 613.084 250.747 612.685C250.565 612.276 250.443 611.969 250.383 611.764C250.355 611.538 250.469 611.321 250.725 611.113C250.981 610.905 251.257 610.774 251.551 610.718C251.851 610.658 252.044 610.737 252.13 610.958C252.168 611.079 252.214 611.234 252.269 611.423C252.35 611.691 252.432 611.974 252.514 612.274C252.601 612.568 252.669 612.823 252.718 613.039Z" fill="#D5B900"/>
<path d="M240.337 379.104C272.988 379.104 299.456 352.635 299.456 319.985C299.456 287.335 272.988 260.866 240.337 260.866C207.687 260.866 181.219 287.335 181.219 319.985C181.219 352.635 207.687 379.104 240.337 379.104Z" fill="#FFE327" fill-opacity="0.6"/>
<path fill-rule="evenodd" clip-rule="evenodd" d="M240.337 262.116C208.377 262.116 182.469 288.025 182.469 319.985C182.469 351.945 208.377 377.854 240.337 377.854C272.297 377.854 298.206 351.945 298.206 319.985C298.206 288.025 272.297 262.116 240.337 262.116ZM179.969 319.985C179.969 286.644 206.997 259.616 240.337 259.616C273.678 259.616 300.706 286.644 300.706 319.985C300.706 353.326 273.678 380.354 240.337 380.354C206.997 380.354 179.969 353.326 179.969 319.985Z" fill="#FBDD00"/>
<path d="M240.337 373.235C269.746 373.235 293.587 349.394 293.587 319.985C293.587 290.576 269.746 266.736 240.337 266.736C210.928 266.736 187.088 290.576 187.088 319.985C187.088 349.394 210.928 373.235 240.337 373.235Z" fill="#FFE327" fill-opacity="0.6"/>
<path fill-rule="evenodd" clip-rule="evenodd" d="M240.337 267.986C211.619 267.986 188.338 291.267 188.338 319.985C188.338 348.704 211.619 371.985 240.337 371.985C269.056 371.985 292.337 348.704 292.337 319.985C292.337 291.267 269.056 267.986 240.337 267.986ZM185.838 319.985C185.838 289.886 210.238 265.486 240.337 265.486C270.437 265.486 294.837 289.886 294.837 319.985C294.837 350.084 270.437 374.485 240.337 374.485C210.238 374.485 185.838 350.084 185.838 319.985Z" fill="url(#paint26_linear_449_3932)" fill-opacity="0.8"/>
<path d="M240.337 367.814C266.753 367.814 288.166 346.4 288.166 319.985C288.166 293.57 266.753 272.156 240.337 272.156C213.922 272.156 192.508 293.57 192.508 319.985C192.508 346.4 213.922 367.814 240.337 367.814Z" fill="url(#paint27_linear_449_3932)" fill-opacity="0.7"/>
<path fill-rule="evenodd" clip-rule="evenodd" d="M240.337 273.406C214.612 273.406 193.758 294.26 193.758 319.985C193.758 345.71 214.612 366.564 240.337 366.564C266.062 366.564 286.916 345.71 286.916 319.985C286.916 294.26 266.062 273.406 240.337 273.406ZM191.258 319.985C191.258 292.879 213.232 270.906 240.337 270.906C267.443 270.906 289.416 292.879 289.416 319.985C289.416 347.091 267.443 369.064 240.337 369.064C213.232 369.064 191.258 347.091 191.258 319.985Z" fill="url(#paint28_linear_449_3932)"/>
<path d="M215.401 307.663H218.87L227.721 329.688L236.553 307.663H240.041L229.057 334.679H226.348L215.401 307.663ZM214.269 307.663H217.33L217.831 324.14V334.679H214.269V307.663ZM238.093 307.663H241.154V334.679H237.592V324.14L238.093 307.663Z" fill="#92000D"/>
<path d="M263.995 312.395H266.76C266.76 313.755 266.574 314.931 266.203 315.92C265.832 316.897 265.214 317.652 264.348 318.184C263.482 318.716 262.307 318.982 260.822 318.982V316.829C261.75 316.829 262.437 316.644 262.882 316.273C263.34 315.902 263.637 315.382 263.773 314.714C263.921 314.046 263.995 313.273 263.995 312.395ZM246.016 324.863V324.437C246.016 322.989 246.226 321.647 246.647 320.41C247.067 319.161 247.673 318.079 248.465 317.163C249.257 316.236 250.215 315.518 251.341 315.011C252.467 314.491 253.728 314.232 255.126 314.232C256.536 314.232 257.804 314.491 258.93 315.011C260.068 315.518 261.033 316.236 261.824 317.163C262.616 318.079 263.222 319.161 263.643 320.41C264.063 321.647 264.274 322.989 264.274 324.437V324.863C264.274 326.311 264.063 327.653 263.643 328.89C263.222 330.127 262.616 331.209 261.824 332.137C261.033 333.052 260.074 333.77 258.948 334.289C257.835 334.796 256.573 335.05 255.163 335.05C253.753 335.05 252.485 334.796 251.359 334.289C250.234 333.77 249.269 333.052 248.465 332.137C247.673 331.209 247.067 330.127 246.647 328.89C246.226 327.653 246.016 326.311 246.016 324.863ZM249.448 324.437V324.863C249.448 325.865 249.566 326.812 249.801 327.702C250.036 328.581 250.388 329.36 250.859 330.04C251.341 330.721 251.941 331.259 252.658 331.654C253.376 332.038 254.211 332.23 255.163 332.23C256.103 332.23 256.926 332.038 257.631 331.654C258.348 331.259 258.942 330.721 259.412 330.04C259.882 329.36 260.235 328.581 260.47 327.702C260.717 326.812 260.841 325.865 260.841 324.863V324.437C260.841 323.447 260.717 322.513 260.47 321.635C260.235 320.744 259.876 319.959 259.394 319.278C258.924 318.586 258.33 318.042 257.612 317.646C256.907 317.25 256.079 317.052 255.126 317.052C254.186 317.052 253.357 317.25 252.64 317.646C251.935 318.042 251.341 318.586 250.859 319.278C250.388 319.959 250.036 320.744 249.801 321.635C249.566 322.513 249.448 323.447 249.448 324.437ZM256.406 311.337H253.939L253.92 308.517C254.551 308.48 255.064 308.418 255.46 308.331C255.856 308.232 256.147 308.09 256.332 307.904C256.518 307.707 256.61 307.447 256.61 307.125C256.61 306.865 256.53 306.649 256.369 306.476C256.208 306.29 255.986 306.142 255.701 306.03C255.417 305.907 255.089 305.82 254.718 305.771C254.347 305.721 253.951 305.696 253.53 305.696L253.66 303.73C254.576 303.73 255.38 303.81 256.072 303.971C256.777 304.132 257.365 304.367 257.835 304.676C258.318 304.985 258.676 305.356 258.911 305.789C259.159 306.21 259.282 306.68 259.282 307.199C259.282 308.139 258.985 308.826 258.392 309.259C257.798 309.68 257.142 309.939 256.425 310.038L256.406 311.337Z" fill="#92000D"/>
<defs>
<filter id="filter0_d_449_3932" x="0.633179" y="10.3921" width="476.974" height="324.056" filterUnits="userSpaceOnUse" color-interpolation-filters="sRGB">
<feFlood flood-opacity="0" result="BackgroundImageFix"/>
<feColorMatrix in="SourceAlpha" type="matrix" values="0 0 0 0 0 0 0 0 0 0 0 0 0 0 0 0 0 0 127 0" result="hardAlpha"/>
<feOffset dy="15"/>
<feGaussianBlur stdDeviation="4"/>
<feComposite in2="hardAlpha" operator="out"/>
<feColorMatrix type="matrix" values="0 0 0 0 0 0 0 0 0 0 0 0 0 0 0 0 0 0 0.4 0"/>
<feBlend mode="normal" in2="BackgroundImageFix" result="effect1_dropShadow_449_3932"/>
<feBlend mode="normal" in="SourceGraphic" in2="effect1_dropShadow_449_3932" result="shape"/>
</filter>
<filter id="filter1_d_449_3932" x="0.633179" y="10.3921" width="476.974" height="324.056" filterUnits="userSpaceOnUse" color-interpolation-filters="sRGB">
<feFlood flood-opacity="0" result="BackgroundImageFix"/>
<feColorMatrix in="SourceAlpha" type="matrix" values="0 0 0 0 0 0 0 0 0 0 0 0 0 0 0 0 0 0 127 0" result="hardAlpha"/>
<feOffset dy="15"/>
<feGaussianBlur stdDeviation="4"/>
<feComposite in2="hardAlpha" operator="out"/>
<feColorMatrix type="matrix" values="0 0 0 0 0 0 0 0 0 0 0 0 0 0 0 0 0 0 0.4 0"/>
<feBlend mode="normal" in2="BackgroundImageFix" result="effect1_dropShadow_449_3932"/>
<feBlend mode="normal" in="SourceGraphic" in2="effect1_dropShadow_449_3932" result="shape"/>
</filter>
<linearGradient id="paint0_linear_449_3932" x1="239.12" y1="-93.8308" x2="239.12" y2="450.089" gradientUnits="userSpaceOnUse">
<stop stop-color="#DFBE13" stop-opacity="0"/>
<stop offset="1" stop-color="#DFBE13"/>
</linearGradient>
<linearGradient id="paint1_linear_449_3932" x1="367.993" y1="86.3631" x2="463.925" y2="57.5839" gradientUnits="userSpaceOnUse">
<stop stop-color="#FFF3A1" stop-opacity="0.12"/>
<stop offset="0.492" stop-color="#FFEB58" stop-opacity="0.45"/>
<stop offset="1" stop-color="#D5B900" stop-opacity="0.43"/>
</linearGradient>
<linearGradient id="paint2_linear_449_3932" x1="68.8346" y1="56.8909" x2="43.7781" y2="72.8681" gradientUnits="userSpaceOnUse">
<stop stop-color="#FFF3A1" stop-opacity="0.13"/>
<stop offset="0.9946" stop-color="#B39C00" stop-opacity="0.52"/>
</linearGradient>
<linearGradient id="paint3_linear_449_3932" x1="312.734" y1="153.374" x2="319.032" y2="153.374" gradientUnits="userSpaceOnUse">
<stop stop-color="#FFF3A1" stop-opacity="0.44"/>
<stop offset="1" stop-color="#D5B900" stop-opacity="0.57"/>
</linearGradient>
<linearGradient id="paint4_linear_449_3932" x1="107.6" y1="138.322" x2="115.6" y2="138.322" gradientUnits="userSpaceOnUse">
<stop stop-color="#FFF3A1" stop-opacity="0"/>
<stop offset="1" stop-color="#FBDD00" stop-opacity="0.4"/>
</linearGradient>
<linearGradient id="paint5_linear_449_3932" x1="259.362" y1="144.146" x2="263.37" y2="144.146" gradientUnits="userSpaceOnUse">
<stop stop-color="#FFF3A1" stop-opacity="0.3"/>
<stop offset="1" stop-color="#A38E00" stop-opacity="0.35"/>
</linearGradient>
<linearGradient id="paint6_linear_449_3932" x1="334.456" y1="100.771" x2="342.98" y2="100.771" gradientUnits="userSpaceOnUse">
<stop stop-color="#C4C4C4" stop-opacity="0"/>
<stop offset="1" stop-color="#B39C00" stop-opacity="0.44"/>
</linearGradient>
<linearGradient id="paint7_linear_449_3932" x1="259.5" y1="196.894" x2="264.991" y2="196.894" gradientUnits="userSpaceOnUse">
<stop stop-color="#D5B900" stop-opacity="0.37"/>
<stop offset="1" stop-color="#FFEC69" stop-opacity="0.42"/>
</linearGradient>
<linearGradient id="paint8_linear_449_3932" x1="201.616" y1="139.325" x2="207.359" y2="139.325" gradientUnits="userSpaceOnUse">
<stop stop-color="#C4C4C4" stop-opacity="0.04"/>
<stop offset="0.9946" stop-color="white" stop-opacity="0.3"/>
</linearGradient>
<linearGradient id="paint9_linear_449_3932" x1="418.083" y1="72.6163" x2="422.44" y2="72.6163" gradientUnits="userSpaceOnUse">
<stop stop-color="white" stop-opacity="0"/>
<stop offset="1" stop-color="#EAEAEA" stop-opacity="0.35"/>
</linearGradient>
<linearGradient id="paint10_linear_449_3932" x1="227.895" y1="217.382" x2="234.841" y2="217.382" gradientUnits="userSpaceOnUse">
<stop stop-color="#F0ED99" stop-opacity="0.65"/>
<stop offset="1" stop-color="#FFEB58" stop-opacity="0.49"/>
</linearGradient>
<linearGradient id="paint11_linear_449_3932" x1="282.048" y1="74.9529" x2="284.101" y2="74.9529" gradientUnits="userSpaceOnUse">
<stop stop-color="#F0ED99" stop-opacity="0.13"/>
<stop offset="1" stop-color="#B39C00" stop-opacity="0.31"/>
</linearGradient>
<linearGradient id="paint12_linear_449_3932" x1="231.078" y1="143.52" x2="235.257" y2="143.52" gradientUnits="userSpaceOnUse">
<stop stop-color="#B39C00" stop-opacity="0.08"/>
<stop offset="1" stop-color="#FFEB58" stop-opacity="0.34"/>
</linearGradient>
<linearGradient id="paint13_linear_449_3932" x1="245.959" y1="181.187" x2="251.819" y2="181.187" gradientUnits="userSpaceOnUse">
<stop stop-color="#FFF190" stop-opacity="0.11"/>
<stop offset="1" stop-color="#D5B900" stop-opacity="0.42"/>
</linearGradient>
<linearGradient id="paint14_linear_449_3932" x1="258.256" y1="229.899" x2="260.01" y2="229.899" gradientUnits="userSpaceOnUse">
<stop stop-color="#FFF3A1" stop-opacity="0.12"/>
<stop offset="1" stop-color="#F0ED99" stop-opacity="0.44"/>
</linearGradient>
<linearGradient id="paint15_linear_449_3932" x1="85.2429" y1="55.0221" x2="90.6853" y2="40.3986" gradientUnits="userSpaceOnUse">
<stop stop-color="#EAEAEA" stop-opacity="0.12"/>
<stop offset="1" stop-color="#B39C00" stop-opacity="0.36"/>
</linearGradient>
<linearGradient id="paint16_linear_449_3932" x1="130.35" y1="121.665" x2="137.188" y2="121.665" gradientUnits="userSpaceOnUse">
<stop stop-color="#D5B900" stop-opacity="0.22"/>
<stop offset="1" stop-color="#B39C00" stop-opacity="0.51"/>
</linearGradient>
<linearGradient id="paint17_linear_449_3932" x1="354.486" y1="127.819" x2="357.052" y2="127.819" gradientUnits="userSpaceOnUse">
<stop stop-color="#EAEAEA" stop-opacity="0.13"/>
<stop offset="1" stop-color="#C4C4C4" stop-opacity="0.42"/>
</linearGradient>
<linearGradient id="paint18_linear_449_3932" x1="263.802" y1="112.443" x2="265.798" y2="125.218" gradientUnits="userSpaceOnUse">
<stop stop-color="#D5B900" stop-opacity="0.1"/>
<stop offset="1" stop-color="#A6A9A7" stop-opacity="0.53"/>
</linearGradient>
<linearGradient id="paint19_linear_449_3932" x1="266.271" y1="256.948" x2="275.751" y2="256.948" gradientUnits="userSpaceOnUse">
<stop stop-color="#FFEC69" stop-opacity="0.12"/>
<stop offset="1" stop-color="#A38E00" stop-opacity="0.6"/>
</linearGradient>
<linearGradient id="paint20_linear_449_3932" x1="275.142" y1="221.835" x2="281.73" y2="221.835" gradientUnits="userSpaceOnUse">
<stop stop-color="#F0ED99" stop-opacity="0.03"/>
<stop offset="0.9946" stop-color="#B39C00" stop-opacity="0.38"/>
</linearGradient>
<linearGradient id="paint21_linear_449_3932" x1="289.377" y1="207.562" x2="292.623" y2="207.562" gradientUnits="userSpaceOnUse">
<stop stop-color="#EAEAEA" stop-opacity="0.17"/>
<stop offset="1" stop-color="#A6A9A7" stop-opacity="0.47"/>
</linearGradient>
<linearGradient id="paint22_linear_449_3932" x1="226.492" y1="248.829" x2="234.607" y2="248.829" gradientUnits="userSpaceOnUse">
<stop stop-color="#EAEAEA" stop-opacity="0.25"/>
<stop offset="0.9946" stop-color="#FFEB58" stop-opacity="0.49"/>
</linearGradient>
<linearGradient id="paint23_linear_449_3932" x1="316.534" y1="105.397" x2="277.752" y2="177.531" gradientUnits="userSpaceOnUse">
<stop stop-color="#F0ED99" stop-opacity="0.19"/>
<stop offset="0.492" stop-color="#FFEB58" stop-opacity="0.53"/>
<stop offset="1" stop-color="#B39C00" stop-opacity="0.54"/>
</linearGradient>
<linearGradient id="paint24_linear_449_3932" x1="251.485" y1="193.49" x2="210.08" y2="193.824" gradientUnits="userSpaceOnUse">
<stop stop-color="#FFEE78" stop-opacity="0.16"/>
<stop offset="0.9946" stop-color="#B39C00" stop-opacity="0.62"/>
</linearGradient>
<linearGradient id="paint25_linear_449_3932" x1="163.568" y1="120.896" x2="188.642" y2="116.745" gradientUnits="userSpaceOnUse">
<stop stop-color="#B39C00" stop-opacity="0.31"/>
<stop offset="0.396" stop-color="#D5B900" stop-opacity="0.24"/>
<stop offset="0.6773" stop-color="#FFEB58" stop-opacity="0.39"/>
<stop offset="0.9918" stop-color="#FFF3A1" stop-opacity="0.14"/>
</linearGradient>
<linearGradient id="paint26_linear_449_3932" x1="269.477" y1="271.435" x2="208.301" y2="362.065" gradientUnits="userSpaceOnUse">
<stop offset="0.265625" stop-color="#F4F4F4"/>
<stop offset="1" stop-color="#FFE747"/>
</linearGradient>
<linearGradient id="paint27_linear_449_3932" x1="252.106" y1="291.072" x2="214.343" y2="363.576" gradientUnits="userSpaceOnUse">
<stop stop-color="#C1AF0A"/>
<stop offset="1" stop-color="#FFE327" stop-opacity="0"/>
</linearGradient>
<linearGradient id="paint28_linear_449_3932" x1="267.211" y1="282.009" x2="213.588" y2="358.289" gradientUnits="userSpaceOnUse">
<stop stop-color="#FFE327" stop-opacity="0.85"/>
<stop offset="1" stop-color="white"/>
</linearGradient>
</defs>
</svg>
